<mxfile host="app.diagrams.net" agent="Mozilla/5.0 (X11; Linux x86_64) AppleWebKit/537.36 (KHTML, like Gecko) Chrome/138.0.0.0 Safari/537.36" version="28.0.6">
  <diagram name="anim - if potom else" id="Q-PUWXVqNWNg1QP_MMTq">
    <mxGraphModel dx="2916" dy="1057" grid="1" gridSize="10" guides="1" tooltips="1" connect="1" arrows="1" fold="1" page="1" pageScale="1" pageWidth="850" pageHeight="1100" math="0" shadow="0">
      <root>
        <UserObject label="" animation="show C0yg4FrweDamgOmbEFy_-194 fade&#xa;show C0yg4FrweDamgOmbEFy_-195 fade&#xa;show C0yg4FrweDamgOmbEFy_-196 fade&#xa;show C0yg4FrweDamgOmbEFy_-197 fade&#xa;show C0yg4FrweDamgOmbEFy_-198 fade&#xa;show C0yg4FrweDamgOmbEFy_-199 fade&#xa;show C0yg4FrweDamgOmbEFy_-200 fade&#xa;show C0yg4FrweDamgOmbEFy_-201 fade&#xa;show C0yg4FrweDamgOmbEFy_-202 fade&#xa;show C0yg4FrweDamgOmbEFy_-203 fade&#xa;show C0yg4FrweDamgOmbEFy_-204 fade&#xa;show C0yg4FrweDamgOmbEFy_-205 fade&#xa;show C0yg4FrweDamgOmbEFy_-206 fade&#xa;show C0yg4FrweDamgOmbEFy_-207 fade&#xa;show C0yg4FrweDamgOmbEFy_-208 fade&#xa;show C0yg4FrweDamgOmbEFy_-209 fade&#xa;show C0yg4FrweDamgOmbEFy_-210 fade&#xa;show C0yg4FrweDamgOmbEFy_-211 fade&#xa;show C0yg4FrweDamgOmbEFy_-212 fade&#xa;show C0yg4FrweDamgOmbEFy_-213 fade&#xa;show C0yg4FrweDamgOmbEFy_-38 fade&#xa;show C0yg4FrweDamgOmbEFy_-39 fade&#xa;show C0yg4FrweDamgOmbEFy_-40 fade&#xa;show C0yg4FrweDamgOmbEFy_-41 fade&#xa;show C0yg4FrweDamgOmbEFy_-42 fade&#xa;show C0yg4FrweDamgOmbEFy_-43 fade&#xa;show C0yg4FrweDamgOmbEFy_-44 fade&#xa;show C0yg4FrweDamgOmbEFy_-45 fade&#xa;show C0yg4FrweDamgOmbEFy_-46 fade&#xa;show C0yg4FrweDamgOmbEFy_-47 fade&#xa;show C0yg4FrweDamgOmbEFy_-48 fade&#xa;show C0yg4FrweDamgOmbEFy_-49 fade&#xa;show C0yg4FrweDamgOmbEFy_-50 fade&#xa;show C0yg4FrweDamgOmbEFy_-51 fade&#xa;show C0yg4FrweDamgOmbEFy_-52 fade&#xa;show C0yg4FrweDamgOmbEFy_-53 fade&#xa;show C0yg4FrweDamgOmbEFy_-54 fade&#xa;show C0yg4FrweDamgOmbEFy_-55 fade&#xa;show C0yg4FrweDamgOmbEFy_-56 fade&#xa;show C0yg4FrweDamgOmbEFy_-57 fade&#xa;show C0yg4FrweDamgOmbEFy_-58 fade&#xa;show C0yg4FrweDamgOmbEFy_-59 fade&#xa;show C0yg4FrweDamgOmbEFy_-60 fade&#xa;show C0yg4FrweDamgOmbEFy_-61 fade&#xa;show C0yg4FrweDamgOmbEFy_-62 fade&#xa;show C0yg4FrweDamgOmbEFy_-63 fade&#xa;show C0yg4FrweDamgOmbEFy_-64 fade&#xa;show C0yg4FrweDamgOmbEFy_-65 fade&#xa;show C0yg4FrweDamgOmbEFy_-66 fade&#xa;show C0yg4FrweDamgOmbEFy_-67 fade&#xa;show C0yg4FrweDamgOmbEFy_-68 fade&#xa;show C0yg4FrweDamgOmbEFy_-69 fade&#xa;show C0yg4FrweDamgOmbEFy_-70 fade&#xa;show C0yg4FrweDamgOmbEFy_-71 fade&#xa;show C0yg4FrweDamgOmbEFy_-72 fade&#xa;show C0yg4FrweDamgOmbEFy_-73 fade&#xa;wait 1500&#xa;&#xa;&#xa;show C0yg4FrweDamgOmbEFy_-274 fade&#xa;show C0yg4FrweDamgOmbEFy_-272 fade&#xa;wait 1500&#xa;&#xa;show C0yg4FrweDamgOmbEFy_-287&#xa;show C0yg4FrweDamgOmbEFy_-288&#xa;wait 1500&#xa;&#xa;show C0yg4FrweDamgOmbEFy_-283 fade&#xa;show C0yg4FrweDamgOmbEFy_-282 fade&#xa;show C0yg4FrweDamgOmbEFy_-243 fade&#xa;wait 1500&#xa;&#xa;show C0yg4FrweDamgOmbEFy_-277&#xa;show C0yg4FrweDamgOmbEFy_-249 fade&#xa;wait 1500&#xa;&#xa;&#xa;show C0yg4FrweDamgOmbEFy_-276 fade&#xa;show C0yg4FrweDamgOmbEFy_-275 fade&#xa;show C0yg4FrweDamgOmbEFy_-251 fade&#xa;wait 1500&#xa;&#xa;show C0yg4FrweDamgOmbEFy_-278&#xa;show C0yg4FrweDamgOmbEFy_-247 fade&#xa;wait 1500&#xa;&#xa;show C0yg4FrweDamgOmbEFy_-284 fade&#xa;wait 1500&#xa;&#xa;show C0yg4FrweDamgOmbEFy_-279&#xa;wait 1500&#xa;&#xa;hide C0yg4FrweDamgOmbEFy_-284&#xa;hide C0yg4FrweDamgOmbEFy_-278&#xa;hide C0yg4FrweDamgOmbEFy_-279&#xa;hide C0yg4FrweDamgOmbEFy_-247&#xa;wait 1500&#xa;&#xa;&#xa;show C0yg4FrweDamgOmbEFy_-289 fade&#xa;show C0yg4FrweDamgOmbEFy_-290 fade&#xa;show C0yg4FrweDamgOmbEFy_-291 fade&#xa;wait 1500&#xa;&#xa;show C0yg4FrweDamgOmbEFy_-280&#xa;wait 1500&#xa;&#xa;show C0yg4FrweDamgOmbEFy_-285&#xa;wait 1500&#xa;&#xa;hide C0yg4FrweDamgOmbEFy_-280&#xa;hide C0yg4FrweDamgOmbEFy_-285&#xa;wait 1500&#xa;&#xa;show C0yg4FrweDamgOmbEFy_-281&#xa;wait 1500&#xa;&#xa;hide C0yg4FrweDamgOmbEFy_-277&#xa;hide C0yg4FrweDamgOmbEFy_-281&#xa;hide C0yg4FrweDamgOmbEFy_-275&#xa;hide C0yg4FrweDamgOmbEFy_-251&#xa;hide C0yg4FrweDamgOmbEFy_-276&#xa;hide C0yg4FrweDamgOmbEFy_-249&#xa;wait 1500&#xa;&#xa;show C0yg4FrweDamgOmbEFy_-286&#xa;wait 1500&#xa;&#xa;&#xa;hide C0yg4FrweDamgOmbEFy_-283&#xa;hide C0yg4FrweDamgOmbEFy_-282&#xa;hide C0yg4FrweDamgOmbEFy_-288&#xa;hide C0yg4FrweDamgOmbEFy_-287&#xa;hide C0yg4FrweDamgOmbEFy_-243&#xa;hide C0yg4FrweDamgOmbEFy_-286&#xa;hide C0yg4FrweDamgOmbEFy_-291&#xa;hide C0yg4FrweDamgOmbEFy_-289&#xa;hide C0yg4FrweDamgOmbEFy_-290&#xa;wait 1500&#xa;&#xa;hide C0yg4FrweDamgOmbEFy_-274&#xa;hide C0yg4FrweDamgOmbEFy_-272&#xa;wait 1500&#xa;&#xa;" id="d1LrVMt3tTgJJ8YbboIR-0">
          <mxCell />
        </UserObject>
        <object label="AcD" id="d1LrVMt3tTgJJ8YbboIR-5">
          <mxCell style="locked=1;" parent="d1LrVMt3tTgJJ8YbboIR-0" visible="0" />
        </object>
        <mxCell id="d1LrVMt3tTgJJ8YbboIR-6" value="" style="group;editable=1;movable=1;resizable=1;rotatable=1;deletable=1;locked=0;connectable=1;opacity=90;" parent="d1LrVMt3tTgJJ8YbboIR-5" vertex="1" connectable="0">
          <mxGeometry x="2120" y="660" width="890" height="510" as="geometry" />
        </mxCell>
        <mxCell id="d1LrVMt3tTgJJ8YbboIR-7" value="Actors" style="swimlane;html=1;childLayout=stackLayout;resizeParent=1;resizeParentMax=0;horizontal=0;startSize=20;horizontalStack=0;whiteSpace=wrap;verticalAlign=middle;editable=1;movable=1;resizable=1;rotatable=1;deletable=1;locked=0;connectable=1;" parent="d1LrVMt3tTgJJ8YbboIR-6" vertex="1">
          <mxGeometry width="890" height="510" as="geometry" />
        </mxCell>
        <mxCell id="d1LrVMt3tTgJJ8YbboIR-8" value="&lt;div&gt;Orders&lt;/div&gt;" style="swimlane;html=1;startSize=20;horizontal=0;editable=1;movable=1;resizable=1;rotatable=1;deletable=1;locked=0;connectable=1;fillColor=default;" parent="d1LrVMt3tTgJJ8YbboIR-7" vertex="1">
          <mxGeometry x="20" width="870" height="270" as="geometry" />
        </mxCell>
        <mxCell id="d1LrVMt3tTgJJ8YbboIR-9" value="" style="html=1;align=center;verticalAlign=top;rounded=1;absoluteArcSize=1;arcSize=20;dashed=1;editable=1;movable=1;resizable=1;rotatable=1;deletable=1;locked=0;connectable=1;" parent="d1LrVMt3tTgJJ8YbboIR-8" vertex="1">
          <mxGeometry x="90" y="10" width="480" height="170" as="geometry" />
        </mxCell>
        <mxCell id="d1LrVMt3tTgJJ8YbboIR-10" value="&lt;div&gt;Receive &lt;br&gt;&lt;/div&gt;&lt;div&gt;order&lt;/div&gt;" style="html=1;align=center;verticalAlign=top;rounded=1;absoluteArcSize=1;arcSize=10;dashed=0;editable=1;movable=1;resizable=1;rotatable=1;deletable=1;locked=0;connectable=1;" parent="d1LrVMt3tTgJJ8YbboIR-8" vertex="1">
          <mxGeometry x="104" y="105" width="66" height="40" as="geometry" />
        </mxCell>
        <mxCell id="d1LrVMt3tTgJJ8YbboIR-11" style="edgeStyle=orthogonalEdgeStyle;rounded=0;orthogonalLoop=1;jettySize=auto;html=1;editable=1;movable=1;resizable=1;rotatable=1;deletable=1;locked=0;connectable=1;flowAnimation=0;" parent="d1LrVMt3tTgJJ8YbboIR-8" source="d1LrVMt3tTgJJ8YbboIR-12" target="d1LrVMt3tTgJJ8YbboIR-23" edge="1">
          <mxGeometry relative="1" as="geometry">
            <Array as="points">
              <mxPoint x="215" y="75" />
              <mxPoint x="770" y="75" />
            </Array>
            <mxPoint x="675" y="110" as="targetPoint" />
          </mxGeometry>
        </mxCell>
        <mxCell id="d1LrVMt3tTgJJ8YbboIR-12" value="" style="rhombus;editable=1;movable=1;resizable=1;rotatable=1;deletable=1;locked=0;connectable=1;" parent="d1LrVMt3tTgJJ8YbboIR-8" vertex="1">
          <mxGeometry x="200" y="110" width="30" height="30" as="geometry" />
        </mxCell>
        <mxCell id="d1LrVMt3tTgJJ8YbboIR-13" value="" style="edgeStyle=orthogonalEdgeStyle;rounded=0;orthogonalLoop=1;jettySize=auto;html=1;editable=1;movable=1;resizable=1;rotatable=1;deletable=1;locked=0;connectable=1;flowAnimation=0;" parent="d1LrVMt3tTgJJ8YbboIR-8" source="d1LrVMt3tTgJJ8YbboIR-10" target="d1LrVMt3tTgJJ8YbboIR-12" edge="1">
          <mxGeometry relative="1" as="geometry" />
        </mxCell>
        <mxCell id="d1LrVMt3tTgJJ8YbboIR-14" value="Fill order" style="html=1;align=center;verticalAlign=middle;rounded=1;absoluteArcSize=1;arcSize=10;dashed=0;editable=1;movable=1;resizable=1;rotatable=1;deletable=1;locked=0;connectable=1;" parent="d1LrVMt3tTgJJ8YbboIR-8" vertex="1">
          <mxGeometry x="320" y="105" width="60" height="40" as="geometry" />
        </mxCell>
        <mxCell id="d1LrVMt3tTgJJ8YbboIR-15" value="[order accepted]" style="edgeStyle=orthogonalEdgeStyle;rounded=0;orthogonalLoop=1;jettySize=auto;html=1;labelBackgroundColor=none;editable=1;movable=1;resizable=1;rotatable=1;deletable=1;locked=0;connectable=1;flowAnimation=0;" parent="d1LrVMt3tTgJJ8YbboIR-8" source="d1LrVMt3tTgJJ8YbboIR-12" target="d1LrVMt3tTgJJ8YbboIR-14" edge="1">
          <mxGeometry x="-0.1111" y="-10" relative="1" as="geometry">
            <mxPoint as="offset" />
          </mxGeometry>
        </mxCell>
        <mxCell id="d1LrVMt3tTgJJ8YbboIR-16" value="" style="html=1;points=[];perimeter=orthogonalPerimeter;fillColor=#000000;strokeColor=none;editable=1;movable=1;resizable=1;rotatable=1;deletable=1;locked=0;connectable=1;" parent="d1LrVMt3tTgJJ8YbboIR-8" vertex="1">
          <mxGeometry x="410" y="85" width="5" height="80" as="geometry" />
        </mxCell>
        <mxCell id="d1LrVMt3tTgJJ8YbboIR-17" value="" style="edgeStyle=orthogonalEdgeStyle;rounded=0;orthogonalLoop=1;jettySize=auto;html=1;editable=1;movable=1;resizable=1;rotatable=1;deletable=1;locked=0;connectable=1;flowAnimation=0;" parent="d1LrVMt3tTgJJ8YbboIR-8" source="d1LrVMt3tTgJJ8YbboIR-14" target="d1LrVMt3tTgJJ8YbboIR-16" edge="1">
          <mxGeometry relative="1" as="geometry" />
        </mxCell>
        <mxCell id="d1LrVMt3tTgJJ8YbboIR-18" value="Prepare &lt;br&gt;shipment" style="html=1;align=center;verticalAlign=middle;rounded=1;absoluteArcSize=1;arcSize=10;dashed=0;editable=1;movable=1;resizable=1;rotatable=1;deletable=1;locked=0;connectable=1;" parent="d1LrVMt3tTgJJ8YbboIR-8" vertex="1">
          <mxGeometry x="470" y="105" width="80" height="40" as="geometry" />
        </mxCell>
        <mxCell id="d1LrVMt3tTgJJ8YbboIR-19" value="" style="edgeStyle=orthogonalEdgeStyle;rounded=0;orthogonalLoop=1;jettySize=auto;html=1;editable=1;movable=1;resizable=1;rotatable=1;deletable=1;locked=0;connectable=1;flowAnimation=0;" parent="d1LrVMt3tTgJJ8YbboIR-8" source="d1LrVMt3tTgJJ8YbboIR-16" target="d1LrVMt3tTgJJ8YbboIR-18" edge="1">
          <mxGeometry relative="1" as="geometry">
            <Array as="points" />
          </mxGeometry>
        </mxCell>
        <mxCell id="d1LrVMt3tTgJJ8YbboIR-20" style="edgeStyle=orthogonalEdgeStyle;rounded=0;orthogonalLoop=1;jettySize=auto;html=1;labelBackgroundColor=none;endArrow=classic;endFill=1;editable=1;movable=1;resizable=1;rotatable=1;deletable=1;locked=0;connectable=1;flowAnimation=0;" parent="d1LrVMt3tTgJJ8YbboIR-8" source="d1LrVMt3tTgJJ8YbboIR-21" target="d1LrVMt3tTgJJ8YbboIR-31" edge="1">
          <mxGeometry relative="1" as="geometry" />
        </mxCell>
        <mxCell id="d1LrVMt3tTgJJ8YbboIR-21" value="" style="html=1;points=[];perimeter=orthogonalPerimeter;fillColor=#000000;strokeColor=none;editable=1;movable=1;resizable=1;rotatable=1;deletable=1;locked=0;connectable=1;" parent="d1LrVMt3tTgJJ8YbboIR-8" vertex="1">
          <mxGeometry x="610" y="85" width="5" height="80" as="geometry" />
        </mxCell>
        <mxCell id="d1LrVMt3tTgJJ8YbboIR-22" value="" style="edgeStyle=none;rounded=0;orthogonalLoop=1;jettySize=auto;html=1;editable=1;movable=1;resizable=1;rotatable=1;deletable=1;locked=0;connectable=1;flowAnimation=0;" parent="d1LrVMt3tTgJJ8YbboIR-8" source="d1LrVMt3tTgJJ8YbboIR-18" target="d1LrVMt3tTgJJ8YbboIR-21" edge="1">
          <mxGeometry relative="1" as="geometry" />
        </mxCell>
        <mxCell id="d1LrVMt3tTgJJ8YbboIR-23" value="&lt;div&gt;Close &lt;br&gt;&lt;/div&gt;&lt;div&gt;order&lt;/div&gt;" style="html=1;align=center;verticalAlign=top;rounded=1;absoluteArcSize=1;arcSize=10;dashed=0;editable=1;movable=1;resizable=1;rotatable=1;deletable=1;locked=0;connectable=1;" parent="d1LrVMt3tTgJJ8YbboIR-8" vertex="1">
          <mxGeometry x="745" y="105" width="60" height="40" as="geometry" />
        </mxCell>
        <mxCell id="d1LrVMt3tTgJJ8YbboIR-24" value="" style="edgeStyle=orthogonalEdgeStyle;rounded=0;orthogonalLoop=1;jettySize=auto;html=1;editable=1;movable=1;resizable=1;rotatable=1;deletable=1;locked=0;connectable=1;flowAnimation=0;" parent="d1LrVMt3tTgJJ8YbboIR-8" source="d1LrVMt3tTgJJ8YbboIR-31" target="d1LrVMt3tTgJJ8YbboIR-23" edge="1">
          <mxGeometry relative="1" as="geometry">
            <mxPoint x="690" y="125" as="sourcePoint" />
          </mxGeometry>
        </mxCell>
        <mxCell id="d1LrVMt3tTgJJ8YbboIR-25" value="" style="ellipse;html=1;shape=endState;fillColor=#000000;strokeColor=#000000;editable=1;movable=1;resizable=1;rotatable=1;deletable=1;locked=0;connectable=1;" parent="d1LrVMt3tTgJJ8YbboIR-8" vertex="1">
          <mxGeometry x="830" y="210" width="30" height="30" as="geometry" />
        </mxCell>
        <mxCell id="d1LrVMt3tTgJJ8YbboIR-26" value="" style="rounded=0;orthogonalLoop=1;jettySize=auto;html=1;editable=1;movable=1;resizable=1;rotatable=1;deletable=1;locked=0;connectable=1;flowAnimation=0;flowAnimationDirection=normal;flowAnimationTimingFunction=linear;" parent="d1LrVMt3tTgJJ8YbboIR-8" source="d1LrVMt3tTgJJ8YbboIR-23" target="d1LrVMt3tTgJJ8YbboIR-25" edge="1">
          <mxGeometry relative="1" as="geometry" />
        </mxCell>
        <mxCell id="d1LrVMt3tTgJJ8YbboIR-27" value="Order cancel request" style="html=1;shape=mxgraph.infographic.ribbonSimple;notch1=20;notch2=0;align=center;verticalAlign=middle;fontSize=14;fontStyle=0;flipH=0;spacingRight=0;spacingLeft=14;editable=1;movable=1;resizable=1;rotatable=1;deletable=1;locked=0;connectable=1;" parent="d1LrVMt3tTgJJ8YbboIR-8" vertex="1">
          <mxGeometry x="380" y="20" width="170" height="40" as="geometry" />
        </mxCell>
        <mxCell id="d1LrVMt3tTgJJ8YbboIR-28" style="edgeStyle=orthogonalEdgeStyle;rounded=0;orthogonalLoop=1;jettySize=auto;html=1;editable=1;movable=1;resizable=1;rotatable=1;deletable=1;locked=0;connectable=1;flowAnimation=0;" parent="d1LrVMt3tTgJJ8YbboIR-8" source="d1LrVMt3tTgJJ8YbboIR-29" target="d1LrVMt3tTgJJ8YbboIR-25" edge="1">
          <mxGeometry relative="1" as="geometry" />
        </mxCell>
        <mxCell id="d1LrVMt3tTgJJ8YbboIR-29" value="&lt;div&gt;Cancel &lt;br&gt;&lt;/div&gt;&lt;div&gt;order&lt;/div&gt;" style="html=1;align=center;verticalAlign=top;rounded=1;absoluteArcSize=1;arcSize=10;dashed=0;editable=1;movable=1;resizable=1;rotatable=1;deletable=1;locked=0;connectable=1;" parent="d1LrVMt3tTgJJ8YbboIR-8" vertex="1">
          <mxGeometry x="745" y="20" width="60" height="40" as="geometry" />
        </mxCell>
        <mxCell id="d1LrVMt3tTgJJ8YbboIR-30" value="" style="shape=mxgraph.lean_mapping.electronic_info_flow_edge;html=1;editable=1;movable=1;resizable=1;rotatable=1;deletable=1;locked=0;connectable=1;" parent="d1LrVMt3tTgJJ8YbboIR-8" source="d1LrVMt3tTgJJ8YbboIR-27" target="d1LrVMt3tTgJJ8YbboIR-29" edge="1">
          <mxGeometry width="160" relative="1" as="geometry">
            <mxPoint x="640" y="-60" as="sourcePoint" />
            <mxPoint x="800" y="-60" as="targetPoint" />
          </mxGeometry>
        </mxCell>
        <mxCell id="d1LrVMt3tTgJJ8YbboIR-31" value="&lt;div&gt;Ship&lt;br&gt;&lt;/div&gt;&lt;div&gt;order&lt;/div&gt;" style="html=1;align=center;verticalAlign=top;rounded=1;absoluteArcSize=1;arcSize=10;dashed=0;editable=1;movable=1;resizable=1;rotatable=1;deletable=1;locked=0;connectable=1;" parent="d1LrVMt3tTgJJ8YbboIR-8" vertex="1">
          <mxGeometry x="650" y="105" width="60" height="40" as="geometry" />
        </mxCell>
        <mxCell id="d1LrVMt3tTgJJ8YbboIR-32" value="Accounting" style="swimlane;html=1;startSize=20;horizontal=0;editable=1;movable=1;resizable=1;rotatable=1;deletable=1;locked=0;connectable=1;fillColor=default;" parent="d1LrVMt3tTgJJ8YbboIR-7" vertex="1">
          <mxGeometry x="20" y="270" width="870" height="120" as="geometry" />
        </mxCell>
        <mxCell id="d1LrVMt3tTgJJ8YbboIR-33" value="Send invoice" style="html=1;align=center;verticalAlign=middle;rounded=1;absoluteArcSize=1;arcSize=10;dashed=0;editable=1;movable=1;resizable=1;rotatable=1;deletable=1;locked=0;connectable=1;" parent="d1LrVMt3tTgJJ8YbboIR-32" vertex="1">
          <mxGeometry x="240" y="40" width="90" height="40" as="geometry" />
        </mxCell>
        <mxCell id="d1LrVMt3tTgJJ8YbboIR-34" value="&lt;div&gt;Accept &lt;br&gt;&lt;/div&gt;&lt;div&gt;payment&lt;/div&gt;" style="html=1;align=center;verticalAlign=top;rounded=1;absoluteArcSize=1;arcSize=10;dashed=0;editable=1;movable=1;resizable=1;rotatable=1;deletable=1;locked=0;connectable=1;" parent="d1LrVMt3tTgJJ8YbboIR-32" vertex="1">
          <mxGeometry x="540" y="30" width="70" height="40" as="geometry" />
        </mxCell>
        <mxCell id="d1LrVMt3tTgJJ8YbboIR-35" value="Customer" style="swimlane;html=1;startSize=20;horizontal=0;editable=1;movable=1;resizable=1;rotatable=1;deletable=1;locked=0;connectable=1;fillColor=default;" parent="d1LrVMt3tTgJJ8YbboIR-7" vertex="1">
          <mxGeometry x="20" y="390" width="870" height="120" as="geometry" />
        </mxCell>
        <mxCell id="d1LrVMt3tTgJJ8YbboIR-36" value="&lt;div&gt;Send &lt;br&gt;&lt;/div&gt;&lt;div&gt;payment&lt;/div&gt;" style="html=1;align=center;verticalAlign=middle;rounded=1;absoluteArcSize=1;arcSize=10;dashed=0;editable=1;movable=1;resizable=1;rotatable=1;deletable=1;locked=0;connectable=1;" parent="d1LrVMt3tTgJJ8YbboIR-35" vertex="1">
          <mxGeometry x="470" y="40" width="70" height="40" as="geometry" />
        </mxCell>
        <mxCell id="d1LrVMt3tTgJJ8YbboIR-37" value="" style="ellipse;fillColor=#000000;strokeColor=none;editable=1;movable=1;resizable=1;rotatable=1;deletable=1;locked=0;connectable=1;" parent="d1LrVMt3tTgJJ8YbboIR-35" vertex="1">
          <mxGeometry x="30" y="45" width="30" height="30" as="geometry" />
        </mxCell>
        <mxCell id="d1LrVMt3tTgJJ8YbboIR-38" value="Submit order" style="rounded=1;whiteSpace=wrap;html=1;editable=1;movable=1;resizable=1;rotatable=1;deletable=1;locked=0;connectable=1;" parent="d1LrVMt3tTgJJ8YbboIR-35" vertex="1">
          <mxGeometry x="102" y="40" width="70" height="40" as="geometry" />
        </mxCell>
        <mxCell id="d1LrVMt3tTgJJ8YbboIR-39" value="" style="edgeStyle=orthogonalEdgeStyle;rounded=0;orthogonalLoop=1;jettySize=auto;html=1;editable=1;movable=1;resizable=1;rotatable=1;deletable=1;locked=0;connectable=1;flowAnimation=0;" parent="d1LrVMt3tTgJJ8YbboIR-35" source="d1LrVMt3tTgJJ8YbboIR-37" target="d1LrVMt3tTgJJ8YbboIR-38" edge="1">
          <mxGeometry relative="1" as="geometry" />
        </mxCell>
        <mxCell id="d1LrVMt3tTgJJ8YbboIR-40" style="edgeStyle=orthogonalEdgeStyle;rounded=0;orthogonalLoop=1;jettySize=auto;html=1;exitX=0.2;exitY=0.613;exitDx=0;exitDy=0;exitPerimeter=0;editable=1;movable=1;resizable=1;rotatable=1;deletable=1;locked=0;connectable=1;flowAnimation=0;" parent="d1LrVMt3tTgJJ8YbboIR-7" source="d1LrVMt3tTgJJ8YbboIR-16" target="d1LrVMt3tTgJJ8YbboIR-33" edge="1">
          <mxGeometry relative="1" as="geometry">
            <mxPoint x="585" y="60" as="sourcePoint" />
            <Array as="points">
              <mxPoint x="431" y="140" />
              <mxPoint x="470" y="140" />
              <mxPoint x="470" y="200" />
              <mxPoint x="305" y="200" />
            </Array>
          </mxGeometry>
        </mxCell>
        <mxCell id="d1LrVMt3tTgJJ8YbboIR-41" style="edgeStyle=none;rounded=0;orthogonalLoop=1;jettySize=auto;html=1;editable=1;movable=1;resizable=1;rotatable=1;deletable=1;locked=0;connectable=1;flowAnimation=0;" parent="d1LrVMt3tTgJJ8YbboIR-7" source="d1LrVMt3tTgJJ8YbboIR-36" target="d1LrVMt3tTgJJ8YbboIR-34" edge="1">
          <mxGeometry relative="1" as="geometry" />
        </mxCell>
        <mxCell id="d1LrVMt3tTgJJ8YbboIR-42" style="edgeStyle=orthogonalEdgeStyle;rounded=0;orthogonalLoop=1;jettySize=auto;html=1;editable=1;movable=1;resizable=1;rotatable=1;deletable=1;locked=0;connectable=1;flowAnimation=0;" parent="d1LrVMt3tTgJJ8YbboIR-7" source="d1LrVMt3tTgJJ8YbboIR-34" target="d1LrVMt3tTgJJ8YbboIR-21" edge="1">
          <mxGeometry relative="1" as="geometry">
            <Array as="points">
              <mxPoint x="600" y="150" />
            </Array>
          </mxGeometry>
        </mxCell>
        <mxCell id="d1LrVMt3tTgJJ8YbboIR-43" style="edgeStyle=orthogonalEdgeStyle;rounded=0;orthogonalLoop=1;jettySize=auto;html=1;endArrow=classic;endFill=1;editable=1;movable=1;resizable=1;rotatable=1;deletable=1;locked=0;connectable=1;flowAnimation=0;" parent="d1LrVMt3tTgJJ8YbboIR-7" source="d1LrVMt3tTgJJ8YbboIR-38" target="d1LrVMt3tTgJJ8YbboIR-10" edge="1">
          <mxGeometry relative="1" as="geometry" />
        </mxCell>
        <mxCell id="d1LrVMt3tTgJJ8YbboIR-44" value="Invoice" style="text;align=center;verticalAlign=middle;dashed=0;editable=1;movable=1;resizable=1;rotatable=1;deletable=1;locked=0;connectable=1;" parent="d1LrVMt3tTgJJ8YbboIR-6" vertex="1">
          <mxGeometry x="384" y="371" width="60" height="40" as="geometry" />
        </mxCell>
        <mxCell id="d1LrVMt3tTgJJ8YbboIR-45" style="rounded=0;orthogonalLoop=1;jettySize=auto;html=1;editable=1;movable=1;resizable=1;rotatable=1;deletable=1;locked=0;connectable=1;flowAnimation=0;" parent="d1LrVMt3tTgJJ8YbboIR-6" source="d1LrVMt3tTgJJ8YbboIR-33" target="d1LrVMt3tTgJJ8YbboIR-44" edge="1">
          <mxGeometry relative="1" as="geometry" />
        </mxCell>
        <mxCell id="d1LrVMt3tTgJJ8YbboIR-46" style="edgeStyle=none;rounded=0;orthogonalLoop=1;jettySize=auto;html=1;editable=1;movable=1;resizable=1;rotatable=1;deletable=1;locked=0;connectable=1;flowAnimation=0;" parent="d1LrVMt3tTgJJ8YbboIR-6" source="d1LrVMt3tTgJJ8YbboIR-44" target="d1LrVMt3tTgJJ8YbboIR-36" edge="1">
          <mxGeometry relative="1" as="geometry" />
        </mxCell>
        <mxCell id="C0yg4FrweDamgOmbEFy_-297" value="" style="group;fillColor=default;editable=1;movable=1;resizable=1;rotatable=1;deletable=1;locked=0;connectable=1;opacity=90;container=0;fontStyle=1" parent="d1LrVMt3tTgJJ8YbboIR-5" vertex="1" connectable="0">
          <mxGeometry x="2230" y="190" width="588" height="398" as="geometry" />
        </mxCell>
        <mxCell id="C0yg4FrweDamgOmbEFy_-298" value="Person" style="swimlane;fontStyle=3;align=center;verticalAlign=top;childLayout=stackLayout;horizontal=1;startSize=26;horizontalStack=0;resizeParent=1;resizeLast=0;collapsible=1;marginBottom=0;rounded=0;shadow=0;strokeWidth=1;editable=1;movable=1;resizable=1;rotatable=1;deletable=1;locked=0;connectable=1;fillColor=#dae8fc;strokeColor=#6c8ebf;" parent="d1LrVMt3tTgJJ8YbboIR-5" vertex="1">
          <mxGeometry x="2370" y="190" width="160" height="138" as="geometry">
            <mxRectangle x="230" y="140" width="160" height="26" as="alternateBounds" />
          </mxGeometry>
        </mxCell>
        <mxCell id="C0yg4FrweDamgOmbEFy_-299" value="+name: str" style="text;align=left;verticalAlign=top;spacingLeft=4;spacingRight=4;overflow=hidden;rotatable=1;points=[[0,0.5],[1,0.5]];portConstraint=eastwest;editable=1;movable=1;resizable=1;deletable=1;locked=0;connectable=1;fillColor=#dae8fc;strokeColor=#6c8ebf;fontStyle=1" parent="C0yg4FrweDamgOmbEFy_-298" vertex="1">
          <mxGeometry y="26" width="160" height="26" as="geometry" />
        </mxCell>
        <mxCell id="C0yg4FrweDamgOmbEFy_-300" value="+phoneNumber: str" style="text;align=left;verticalAlign=top;spacingLeft=4;spacingRight=4;overflow=hidden;rotatable=1;points=[[0,0.5],[1,0.5]];portConstraint=eastwest;rounded=0;shadow=0;html=0;editable=1;movable=1;resizable=1;deletable=1;locked=0;connectable=1;fillColor=#dae8fc;strokeColor=#6c8ebf;fontStyle=1" parent="C0yg4FrweDamgOmbEFy_-298" vertex="1">
          <mxGeometry y="52" width="160" height="26" as="geometry" />
        </mxCell>
        <mxCell id="C0yg4FrweDamgOmbEFy_-301" value="+emailAddress: str" style="text;align=left;verticalAlign=top;spacingLeft=4;spacingRight=4;overflow=hidden;rotatable=1;points=[[0,0.5],[1,0.5]];portConstraint=eastwest;rounded=0;shadow=0;html=0;editable=1;movable=1;resizable=1;deletable=1;locked=0;connectable=1;fillColor=#dae8fc;strokeColor=#6c8ebf;fontStyle=1" parent="C0yg4FrweDamgOmbEFy_-298" vertex="1">
          <mxGeometry y="78" width="160" height="26" as="geometry" />
        </mxCell>
        <mxCell id="C0yg4FrweDamgOmbEFy_-302" value="" style="line;html=1;strokeWidth=1;align=left;verticalAlign=middle;spacingTop=-1;spacingLeft=3;spacingRight=3;rotatable=1;labelPosition=right;points=[];portConstraint=eastwest;editable=1;movable=1;resizable=1;deletable=1;locked=0;connectable=1;fontStyle=1" parent="C0yg4FrweDamgOmbEFy_-298" vertex="1">
          <mxGeometry y="104" width="160" height="8" as="geometry" />
        </mxCell>
        <mxCell id="C0yg4FrweDamgOmbEFy_-303" value="+purchaseParkingPass()" style="text;align=left;verticalAlign=top;spacingLeft=4;spacingRight=4;overflow=hidden;rotatable=1;points=[[0,0.5],[1,0.5]];portConstraint=eastwest;editable=1;movable=1;resizable=1;deletable=1;locked=0;connectable=1;fillColor=#dae8fc;strokeColor=#6c8ebf;fontStyle=1" parent="C0yg4FrweDamgOmbEFy_-298" vertex="1">
          <mxGeometry y="112" width="160" height="26" as="geometry" />
        </mxCell>
        <mxCell id="C0yg4FrweDamgOmbEFy_-304" value="Student" style="swimlane;fontStyle=1;align=center;verticalAlign=top;childLayout=stackLayout;horizontal=1;startSize=26;horizontalStack=0;resizeParent=1;resizeLast=0;collapsible=1;marginBottom=0;rounded=0;shadow=0;strokeWidth=1;editable=1;movable=1;resizable=1;rotatable=1;deletable=1;locked=0;connectable=1;fillColor=#dae8fc;strokeColor=#6c8ebf;" parent="d1LrVMt3tTgJJ8YbboIR-5" vertex="1">
          <mxGeometry x="2230" y="450" width="160" height="138" as="geometry">
            <mxRectangle x="130" y="380" width="160" height="26" as="alternateBounds" />
          </mxGeometry>
        </mxCell>
        <mxCell id="C0yg4FrweDamgOmbEFy_-305" value="+studentNumber: int" style="text;align=left;verticalAlign=top;spacingLeft=4;spacingRight=4;overflow=hidden;rotatable=1;points=[[0,0.5],[1,0.5]];portConstraint=eastwest;fontStyle=1;editable=1;movable=1;resizable=1;deletable=1;locked=0;connectable=1;fillColor=#dae8fc;strokeColor=#6c8ebf;" parent="C0yg4FrweDamgOmbEFy_-304" vertex="1">
          <mxGeometry y="26" width="160" height="26" as="geometry" />
        </mxCell>
        <mxCell id="C0yg4FrweDamgOmbEFy_-306" value="+averageMark: int" style="text;align=left;verticalAlign=top;spacingLeft=4;spacingRight=4;overflow=hidden;rotatable=1;points=[[0,0.5],[1,0.5]];portConstraint=eastwest;rounded=0;shadow=0;html=0;editable=1;movable=1;resizable=1;deletable=1;locked=0;connectable=1;fillColor=#dae8fc;strokeColor=#6c8ebf;fontStyle=1" parent="C0yg4FrweDamgOmbEFy_-304" vertex="1">
          <mxGeometry y="52" width="160" height="26" as="geometry" />
        </mxCell>
        <mxCell id="C0yg4FrweDamgOmbEFy_-307" value="" style="line;html=1;strokeWidth=1;align=left;verticalAlign=middle;spacingTop=-1;spacingLeft=3;spacingRight=3;rotatable=1;labelPosition=right;points=[];portConstraint=eastwest;editable=1;movable=1;resizable=1;deletable=1;locked=0;connectable=1;fontStyle=1" parent="C0yg4FrweDamgOmbEFy_-304" vertex="1">
          <mxGeometry y="78" width="160" height="8" as="geometry" />
        </mxCell>
        <mxCell id="C0yg4FrweDamgOmbEFy_-308" value="+isEligibleToEnroll(str): bool" style="text;align=left;verticalAlign=top;spacingLeft=4;spacingRight=4;overflow=hidden;rotatable=1;points=[[0,0.5],[1,0.5]];portConstraint=eastwest;fontStyle=5;editable=1;movable=1;resizable=1;deletable=1;locked=0;connectable=1;fillColor=#dae8fc;strokeColor=#6c8ebf;" parent="C0yg4FrweDamgOmbEFy_-304" vertex="1">
          <mxGeometry y="86" width="160" height="26" as="geometry" />
        </mxCell>
        <mxCell id="C0yg4FrweDamgOmbEFy_-309" value="+getSeminarsTaken(): int" style="text;align=left;verticalAlign=top;spacingLeft=4;spacingRight=4;overflow=hidden;rotatable=1;points=[[0,0.5],[1,0.5]];portConstraint=eastwest;editable=1;movable=1;resizable=1;deletable=1;locked=0;connectable=1;fillColor=#dae8fc;strokeColor=#6c8ebf;fontStyle=1" parent="C0yg4FrweDamgOmbEFy_-304" vertex="1">
          <mxGeometry y="112" width="160" height="26" as="geometry" />
        </mxCell>
        <mxCell id="C0yg4FrweDamgOmbEFy_-310" value="" style="endArrow=block;endSize=10;endFill=0;shadow=0;strokeWidth=2;rounded=0;edgeStyle=elbowEdgeStyle;elbow=vertical;editable=1;movable=1;resizable=1;rotatable=1;deletable=1;locked=0;connectable=1;strokeColor=#0066CC;fontStyle=1" parent="d1LrVMt3tTgJJ8YbboIR-5" source="C0yg4FrweDamgOmbEFy_-304" target="C0yg4FrweDamgOmbEFy_-298" edge="1">
          <mxGeometry width="160" relative="1" as="geometry">
            <mxPoint x="2350" y="273" as="sourcePoint" />
            <mxPoint x="2350" y="273" as="targetPoint" />
          </mxGeometry>
        </mxCell>
        <mxCell id="C0yg4FrweDamgOmbEFy_-311" value="Professor" style="swimlane;fontStyle=1;align=center;verticalAlign=top;childLayout=stackLayout;horizontal=1;startSize=26;horizontalStack=0;resizeParent=1;resizeLast=0;collapsible=1;marginBottom=0;rounded=0;shadow=0;strokeWidth=1;editable=1;movable=1;resizable=1;rotatable=1;deletable=1;locked=0;connectable=1;fillColor=#dae8fc;strokeColor=#6c8ebf;" parent="d1LrVMt3tTgJJ8YbboIR-5" vertex="1">
          <mxGeometry x="2530" y="450" width="160" height="138" as="geometry">
            <mxRectangle x="340" y="380" width="170" height="26" as="alternateBounds" />
          </mxGeometry>
        </mxCell>
        <mxCell id="C0yg4FrweDamgOmbEFy_-312" value="/salary: int" style="text;align=left;verticalAlign=top;spacingLeft=4;spacingRight=4;overflow=hidden;rotatable=1;points=[[0,0.5],[1,0.5]];portConstraint=eastwest;editable=1;movable=1;resizable=1;deletable=1;locked=0;connectable=1;fillColor=#dae8fc;strokeColor=#6c8ebf;fontStyle=1" parent="C0yg4FrweDamgOmbEFy_-311" vertex="1">
          <mxGeometry y="26" width="160" height="26" as="geometry" />
        </mxCell>
        <mxCell id="C0yg4FrweDamgOmbEFy_-313" value="#staffNumber: int" style="text;align=left;verticalAlign=top;spacingLeft=4;spacingRight=4;overflow=hidden;rotatable=1;points=[[0,0.5],[1,0.5]];portConstraint=eastwest;editable=1;movable=1;resizable=1;deletable=1;locked=0;connectable=1;fillColor=#dae8fc;strokeColor=#6c8ebf;fontStyle=1" parent="C0yg4FrweDamgOmbEFy_-311" vertex="1">
          <mxGeometry y="52" width="160" height="26" as="geometry" />
        </mxCell>
        <mxCell id="C0yg4FrweDamgOmbEFy_-314" value="-yearsOfService: int" style="text;align=left;verticalAlign=top;spacingLeft=4;spacingRight=4;overflow=hidden;rotatable=1;points=[[0,0.5],[1,0.5]];portConstraint=eastwest;editable=1;movable=1;resizable=1;deletable=1;locked=0;connectable=1;fillColor=#dae8fc;strokeColor=#6c8ebf;fontStyle=1" parent="C0yg4FrweDamgOmbEFy_-311" vertex="1">
          <mxGeometry y="78" width="160" height="26" as="geometry" />
        </mxCell>
        <mxCell id="C0yg4FrweDamgOmbEFy_-315" value="+numberOfClasses: int" style="text;align=left;verticalAlign=top;spacingLeft=4;spacingRight=4;overflow=hidden;rotatable=1;points=[[0,0.5],[1,0.5]];portConstraint=eastwest;editable=1;movable=1;resizable=1;deletable=1;locked=0;connectable=1;fillColor=#dae8fc;strokeColor=#6c8ebf;fontStyle=1" parent="C0yg4FrweDamgOmbEFy_-311" vertex="1">
          <mxGeometry y="104" width="160" height="26" as="geometry" />
        </mxCell>
        <mxCell id="C0yg4FrweDamgOmbEFy_-316" value="" style="line;html=1;strokeWidth=1;align=left;verticalAlign=middle;spacingTop=-1;spacingLeft=3;spacingRight=3;rotatable=1;labelPosition=right;points=[];portConstraint=eastwest;editable=1;movable=1;resizable=1;deletable=1;locked=0;connectable=1;fontStyle=1" parent="C0yg4FrweDamgOmbEFy_-311" vertex="1">
          <mxGeometry y="130" width="160" height="8" as="geometry" />
        </mxCell>
        <mxCell id="C0yg4FrweDamgOmbEFy_-317" value="" style="endArrow=block;endSize=10;endFill=0;shadow=0;strokeWidth=2;rounded=0;edgeStyle=elbowEdgeStyle;elbow=vertical;editable=1;movable=1;resizable=1;rotatable=1;deletable=1;locked=0;connectable=1;strokeColor=#0066CC;fontStyle=1" parent="d1LrVMt3tTgJJ8YbboIR-5" source="C0yg4FrweDamgOmbEFy_-311" target="C0yg4FrweDamgOmbEFy_-298" edge="1">
          <mxGeometry width="160" relative="1" as="geometry">
            <mxPoint x="2360" y="443" as="sourcePoint" />
            <mxPoint x="2460" y="341" as="targetPoint" />
          </mxGeometry>
        </mxCell>
        <mxCell id="C0yg4FrweDamgOmbEFy_-318" value="Address" style="swimlane;fontStyle=1;align=center;verticalAlign=top;childLayout=stackLayout;horizontal=1;startSize=26;horizontalStack=0;resizeParent=1;resizeLast=0;collapsible=1;marginBottom=0;rounded=0;shadow=0;strokeWidth=1;editable=1;movable=1;resizable=1;rotatable=1;deletable=1;locked=0;connectable=1;fillColor=#dae8fc;strokeColor=#6c8ebf;" parent="d1LrVMt3tTgJJ8YbboIR-5" vertex="1">
          <mxGeometry x="2658" y="190" width="160" height="216" as="geometry">
            <mxRectangle x="550" y="140" width="160" height="26" as="alternateBounds" />
          </mxGeometry>
        </mxCell>
        <mxCell id="C0yg4FrweDamgOmbEFy_-319" value="+street: str" style="text;align=left;verticalAlign=top;spacingLeft=4;spacingRight=4;overflow=hidden;rotatable=1;points=[[0,0.5],[1,0.5]];portConstraint=eastwest;editable=1;movable=1;resizable=1;deletable=1;locked=0;connectable=1;fillColor=#dae8fc;strokeColor=#6c8ebf;fontStyle=1" parent="C0yg4FrweDamgOmbEFy_-318" vertex="1">
          <mxGeometry y="26" width="160" height="26" as="geometry" />
        </mxCell>
        <mxCell id="C0yg4FrweDamgOmbEFy_-320" value="+city: str" style="text;align=left;verticalAlign=top;spacingLeft=4;spacingRight=4;overflow=hidden;rotatable=1;points=[[0,0.5],[1,0.5]];portConstraint=eastwest;rounded=0;shadow=0;html=0;editable=1;movable=1;resizable=1;deletable=1;locked=0;connectable=1;fillColor=#dae8fc;strokeColor=#6c8ebf;fontStyle=1" parent="C0yg4FrweDamgOmbEFy_-318" vertex="1">
          <mxGeometry y="52" width="160" height="26" as="geometry" />
        </mxCell>
        <mxCell id="C0yg4FrweDamgOmbEFy_-321" value="+state: str" style="text;align=left;verticalAlign=top;spacingLeft=4;spacingRight=4;overflow=hidden;rotatable=1;points=[[0,0.5],[1,0.5]];portConstraint=eastwest;rounded=0;shadow=0;html=0;editable=1;movable=1;resizable=1;deletable=1;locked=0;connectable=1;fillColor=#dae8fc;strokeColor=#6c8ebf;fontStyle=1" parent="C0yg4FrweDamgOmbEFy_-318" vertex="1">
          <mxGeometry y="78" width="160" height="26" as="geometry" />
        </mxCell>
        <mxCell id="C0yg4FrweDamgOmbEFy_-322" value="+postalCode: int" style="text;align=left;verticalAlign=top;spacingLeft=4;spacingRight=4;overflow=hidden;rotatable=1;points=[[0,0.5],[1,0.5]];portConstraint=eastwest;rounded=0;shadow=0;html=0;editable=1;movable=1;resizable=1;deletable=1;locked=0;connectable=1;fillColor=#dae8fc;strokeColor=#6c8ebf;fontStyle=1" parent="C0yg4FrweDamgOmbEFy_-318" vertex="1">
          <mxGeometry y="104" width="160" height="26" as="geometry" />
        </mxCell>
        <mxCell id="C0yg4FrweDamgOmbEFy_-323" value="+country: str" style="text;align=left;verticalAlign=top;spacingLeft=4;spacingRight=4;overflow=hidden;rotatable=1;points=[[0,0.5],[1,0.5]];portConstraint=eastwest;rounded=0;shadow=0;html=0;editable=1;movable=1;resizable=1;deletable=1;locked=0;connectable=1;fillColor=#dae8fc;strokeColor=#6c8ebf;fontStyle=1" parent="C0yg4FrweDamgOmbEFy_-318" vertex="1">
          <mxGeometry y="130" width="160" height="26" as="geometry" />
        </mxCell>
        <mxCell id="C0yg4FrweDamgOmbEFy_-324" value="" style="line;html=1;strokeWidth=1;align=left;verticalAlign=middle;spacingTop=-1;spacingLeft=3;spacingRight=3;rotatable=1;labelPosition=right;points=[];portConstraint=eastwest;editable=1;movable=1;resizable=1;deletable=1;locked=0;connectable=1;fontStyle=1" parent="C0yg4FrweDamgOmbEFy_-318" vertex="1">
          <mxGeometry y="156" width="160" height="8" as="geometry" />
        </mxCell>
        <mxCell id="C0yg4FrweDamgOmbEFy_-325" value="-validate(): bool" style="text;align=left;verticalAlign=top;spacingLeft=4;spacingRight=4;overflow=hidden;rotatable=1;points=[[0,0.5],[1,0.5]];portConstraint=eastwest;editable=1;movable=1;resizable=1;deletable=1;locked=0;connectable=1;fillColor=#dae8fc;strokeColor=#6c8ebf;fontStyle=1" parent="C0yg4FrweDamgOmbEFy_-318" vertex="1">
          <mxGeometry y="164" width="160" height="26" as="geometry" />
        </mxCell>
        <mxCell id="C0yg4FrweDamgOmbEFy_-326" value="+outputAsLabel(): str" style="text;align=left;verticalAlign=top;spacingLeft=4;spacingRight=4;overflow=hidden;rotatable=1;points=[[0,0.5],[1,0.5]];portConstraint=eastwest;editable=1;movable=1;resizable=1;deletable=1;locked=0;connectable=1;fillColor=#dae8fc;strokeColor=#6c8ebf;fontStyle=1" parent="C0yg4FrweDamgOmbEFy_-318" vertex="1">
          <mxGeometry y="190" width="160" height="26" as="geometry" />
        </mxCell>
        <mxCell id="C0yg4FrweDamgOmbEFy_-327" value="" style="endArrow=open;shadow=0;strokeWidth=2;rounded=0;endFill=1;edgeStyle=elbowEdgeStyle;elbow=vertical;editable=1;movable=1;resizable=1;rotatable=1;deletable=1;locked=0;connectable=1;strokeColor=#0066CC;fontStyle=1" parent="d1LrVMt3tTgJJ8YbboIR-5" source="C0yg4FrweDamgOmbEFy_-298" target="C0yg4FrweDamgOmbEFy_-318" edge="1">
          <mxGeometry x="0.5" y="41" relative="1" as="geometry">
            <mxPoint x="2530" y="262" as="sourcePoint" />
            <mxPoint x="2690" y="262" as="targetPoint" />
            <mxPoint x="-40" y="32" as="offset" />
          </mxGeometry>
        </mxCell>
        <mxCell id="C0yg4FrweDamgOmbEFy_-328" value="0..1" style="resizable=1;align=left;verticalAlign=bottom;labelBackgroundColor=none;fontSize=12;editable=1;movable=1;rotatable=1;deletable=1;locked=0;connectable=1;fontStyle=1" parent="C0yg4FrweDamgOmbEFy_-327" connectable="0" vertex="1">
          <mxGeometry x="-1" relative="1" as="geometry">
            <mxPoint y="1" as="offset" />
          </mxGeometry>
        </mxCell>
        <mxCell id="C0yg4FrweDamgOmbEFy_-329" value="1" style="resizable=1;align=right;verticalAlign=bottom;labelBackgroundColor=none;fontSize=12;editable=1;movable=1;rotatable=1;deletable=1;locked=0;connectable=1;fontStyle=1" parent="C0yg4FrweDamgOmbEFy_-327" connectable="0" vertex="1">
          <mxGeometry x="1" relative="1" as="geometry">
            <mxPoint x="-7" y="21" as="offset" />
          </mxGeometry>
        </mxCell>
        <mxCell id="C0yg4FrweDamgOmbEFy_-330" value="lives at" style="text;html=1;resizable=1;points=[];;align=center;verticalAlign=middle;labelBackgroundColor=none;rounded=0;shadow=0;strokeWidth=1;fontSize=12;editable=1;movable=1;rotatable=1;deletable=1;locked=0;connectable=1;fontStyle=1" parent="C0yg4FrweDamgOmbEFy_-327" vertex="1" connectable="0">
          <mxGeometry x="0.5" y="49" relative="1" as="geometry">
            <mxPoint x="-38" y="40" as="offset" />
          </mxGeometry>
        </mxCell>
        <mxCell id="C0yg4FrweDamgOmbEFy_-331" value="supervises" style="edgeStyle=orthogonalEdgeStyle;rounded=0;orthogonalLoop=1;jettySize=auto;html=1;entryX=1;entryY=0.5;entryDx=0;entryDy=0;endArrow=open;endFill=0;editable=1;movable=1;resizable=1;rotatable=1;deletable=1;locked=0;connectable=1;strokeColor=#0066CC;strokeWidth=2;fontStyle=1" parent="d1LrVMt3tTgJJ8YbboIR-5" source="C0yg4FrweDamgOmbEFy_-312" target="C0yg4FrweDamgOmbEFy_-305" edge="1">
          <mxGeometry y="-9" relative="1" as="geometry">
            <mxPoint as="offset" />
          </mxGeometry>
        </mxCell>
        <mxCell id="C0yg4FrweDamgOmbEFy_-332" value="0...*" style="edgeLabel;html=1;align=center;verticalAlign=middle;resizable=1;points=[];editable=1;movable=1;rotatable=1;deletable=1;locked=0;connectable=1;fontStyle=1" parent="C0yg4FrweDamgOmbEFy_-331" vertex="1" connectable="0">
          <mxGeometry x="0.8857" y="-2" relative="1" as="geometry">
            <mxPoint x="12" y="-11" as="offset" />
          </mxGeometry>
        </mxCell>
        <mxCell id="C0yg4FrweDamgOmbEFy_-333" value="1...5" style="edgeLabel;html=1;align=center;verticalAlign=middle;resizable=1;points=[];editable=1;movable=1;rotatable=1;deletable=1;locked=0;connectable=1;fontStyle=1" parent="C0yg4FrweDamgOmbEFy_-331" vertex="1" connectable="0">
          <mxGeometry x="-0.8286" relative="1" as="geometry">
            <mxPoint y="11" as="offset" />
          </mxGeometry>
        </mxCell>
        <object label="SqD" id="d1LrVMt3tTgJJ8YbboIR-48">
          <mxCell style="locked=1;" parent="d1LrVMt3tTgJJ8YbboIR-0" />
        </object>
        <UserObject label="Sequence Diagram" link="data:action/json,{&quot;actions&quot;:[{&quot;toggle&quot;:{&quot;cells&quot;:[&quot;d1LrVMt3tTgJJ8YbboIR-75&quot;]}}]}" id="d1LrVMt3tTgJJ8YbboIR-75">
          <mxCell style="rounded=1;whiteSpace=wrap;html=1;fillColor=#f5f5f5;strokeColor=#666666;fontColor=#333333;fontStyle=1;fontSize=16;" parent="d1LrVMt3tTgJJ8YbboIR-48" vertex="1" visible="0">
            <mxGeometry x="240" y="720" width="160" height="40" as="geometry" />
          </mxCell>
        </UserObject>
        <UserObject label="Sequence Diagram" link="data:action/json,{&quot;actions&quot;:[{&quot;toggle&quot;:{&quot;cells&quot;:[&quot;d1LrVMt3tTgJJ8YbboIR-76&quot;]}}]}" id="d1LrVMt3tTgJJ8YbboIR-76">
          <mxCell style="rounded=1;whiteSpace=wrap;html=1;fillColor=#f5f5f5;strokeColor=#666666;fontColor=#333333;fontStyle=1;fontSize=16;" parent="d1LrVMt3tTgJJ8YbboIR-48" vertex="1" visible="0">
            <mxGeometry x="240" y="720" width="160" height="40" as="geometry" />
          </mxCell>
        </UserObject>
        <UserObject label="Sequence&lt;span style=&quot;background-color: transparent;&quot;&gt;&amp;nbsp;Diagram&lt;/span&gt;" link="data:action/json,{&quot;actions&quot;:[{&quot;toggle&quot;:{&quot;cells&quot;:[&quot;d1LrVMt3tTgJJ8YbboIR-77&quot;]}}]}" id="d1LrVMt3tTgJJ8YbboIR-77">
          <mxCell style="rounded=1;whiteSpace=wrap;html=1;fillColor=#f5f5f5;strokeColor=#666666;fontStyle=1;fontSize=16;fontColor=#000000;" parent="d1LrVMt3tTgJJ8YbboIR-48" vertex="1" visible="0">
            <mxGeometry x="240" y="720" width="160" height="40" as="geometry" />
          </mxCell>
        </UserObject>
        <mxCell id="C0yg4FrweDamgOmbEFy_-296" value="" style="group;fillColor=none;" parent="d1LrVMt3tTgJJ8YbboIR-48" vertex="1" connectable="0">
          <mxGeometry x="-270" y="580" width="790" height="438" as="geometry" />
        </mxCell>
        <mxCell id="C0yg4FrweDamgOmbEFy_-194" value="student" style="shape=umlLifeline;perimeter=lifelinePerimeter;whiteSpace=wrap;container=1;dropTarget=0;collapsible=0;recursiveResize=0;outlineConnect=0;portConstraint=eastwest;newEdgeStyle={&quot;edgeStyle&quot;:&quot;elbowEdgeStyle&quot;,&quot;elbow&quot;:&quot;vertical&quot;,&quot;curved&quot;:0,&quot;rounded&quot;:0};participant=umlActor;verticalAlign=bottom;labelPosition=center;verticalLabelPosition=top;align=center;size=65;fillColor=#f5f5f5;fontColor=#333333;strokeColor=#666666;" parent="C0yg4FrweDamgOmbEFy_-296" vertex="1">
          <mxGeometry x="40" width="35" height="438" as="geometry" />
        </mxCell>
        <mxCell id="C0yg4FrweDamgOmbEFy_-195" value="" style="points=[];perimeter=orthogonalPerimeter;outlineConnect=0;targetShapes=umlLifeline;portConstraint=eastwest;newEdgeStyle={&quot;edgeStyle&quot;:&quot;elbowEdgeStyle&quot;,&quot;elbow&quot;:&quot;vertical&quot;,&quot;curved&quot;:0,&quot;rounded&quot;:0}" parent="C0yg4FrweDamgOmbEFy_-194" vertex="1">
          <mxGeometry x="12.5" width="10" as="geometry" />
        </mxCell>
        <mxCell id="C0yg4FrweDamgOmbEFy_-196" value="" style="points=[];perimeter=orthogonalPerimeter;outlineConnect=0;targetShapes=umlLifeline;portConstraint=eastwest;newEdgeStyle={&quot;edgeStyle&quot;:&quot;elbowEdgeStyle&quot;,&quot;elbow&quot;:&quot;vertical&quot;,&quot;curved&quot;:0,&quot;rounded&quot;:0};fillColor=#f5f5f5;fontColor=#333333;strokeColor=#666666;" parent="C0yg4FrweDamgOmbEFy_-194" vertex="1">
          <mxGeometry x="12.5" y="90" width="10" height="293" as="geometry" />
        </mxCell>
        <mxCell id="C0yg4FrweDamgOmbEFy_-197" value="Professor" style="shape=umlLifeline;perimeter=lifelinePerimeter;whiteSpace=wrap;container=1;dropTarget=0;collapsible=0;recursiveResize=0;outlineConnect=0;portConstraint=eastwest;newEdgeStyle={&quot;edgeStyle&quot;:&quot;elbowEdgeStyle&quot;,&quot;elbow&quot;:&quot;vertical&quot;,&quot;curved&quot;:0,&quot;rounded&quot;:0};size=65;fillColor=#f5f5f5;fontColor=#333333;strokeColor=#666666;" parent="C0yg4FrweDamgOmbEFy_-296" vertex="1">
          <mxGeometry x="640" width="150" height="438" as="geometry" />
        </mxCell>
        <mxCell id="C0yg4FrweDamgOmbEFy_-198" value="" style="points=[];perimeter=orthogonalPerimeter;outlineConnect=0;targetShapes=umlLifeline;portConstraint=eastwest;newEdgeStyle={&quot;edgeStyle&quot;:&quot;elbowEdgeStyle&quot;,&quot;elbow&quot;:&quot;vertical&quot;,&quot;curved&quot;:0,&quot;rounded&quot;:0};fillColor=#f5f5f5;fontColor=#333333;strokeColor=#666666;" parent="C0yg4FrweDamgOmbEFy_-197" vertex="1">
          <mxGeometry x="70" y="110" width="10" height="250" as="geometry" />
        </mxCell>
        <mxCell id="C0yg4FrweDamgOmbEFy_-199" value="requestEnrollment(&quot;AdvancedAI101&quot;)" style="verticalAlign=bottom;edgeStyle=elbowEdgeStyle;elbow=vertical;curved=0;rounded=0;endArrow=block;fillColor=#f5f5f5;strokeColor=#666666;" parent="C0yg4FrweDamgOmbEFy_-296" edge="1">
          <mxGeometry relative="1" as="geometry">
            <Array as="points">
              <mxPoint x="647" y="110" />
            </Array>
            <mxPoint x="350" y="110" as="sourcePoint" />
            <mxPoint x="710" y="110" as="targetPoint" />
          </mxGeometry>
        </mxCell>
        <mxCell id="C0yg4FrweDamgOmbEFy_-200" value="isEligibleToEnroll(&quot;AdvancedAI101&quot;)" style="verticalAlign=bottom;edgeStyle=elbowEdgeStyle;elbow=vertical;curved=0;rounded=0;endArrow=block;fillColor=#f5f5f5;strokeColor=#666666;" parent="C0yg4FrweDamgOmbEFy_-296" source="C0yg4FrweDamgOmbEFy_-198" edge="1">
          <mxGeometry relative="1" as="geometry">
            <Array as="points">
              <mxPoint x="710" y="150" />
            </Array>
            <mxPoint x="803" y="150" as="sourcePoint" />
            <mxPoint x="356" y="150" as="targetPoint" />
          </mxGeometry>
        </mxCell>
        <mxCell id="C0yg4FrweDamgOmbEFy_-201" value="true/false" style="verticalAlign=bottom;edgeStyle=elbowEdgeStyle;elbow=vertical;curved=0;rounded=0;dashed=1;dashPattern=2 3;endArrow=block;fillColor=#f5f5f5;strokeColor=#666666;" parent="C0yg4FrweDamgOmbEFy_-296" edge="1">
          <mxGeometry relative="1" as="geometry">
            <Array as="points">
              <mxPoint x="670" y="200" />
            </Array>
            <mxPoint x="345.2468354430382" y="202" as="sourcePoint" />
            <mxPoint x="710" y="200" as="targetPoint" />
          </mxGeometry>
        </mxCell>
        <mxCell id="C0yg4FrweDamgOmbEFy_-202" value="allowed" style="verticalAlign=bottom;edgeStyle=elbowEdgeStyle;elbow=vertical;curved=0;rounded=0;dashed=1;dashPattern=2 3;endArrow=block;fillColor=#f5f5f5;strokeColor=#666666;" parent="C0yg4FrweDamgOmbEFy_-296" edge="1">
          <mxGeometry relative="1" as="geometry">
            <Array as="points">
              <mxPoint x="648" y="272" />
            </Array>
            <mxPoint x="350" y="272" as="targetPoint" />
            <mxPoint x="710" y="272" as="sourcePoint" />
          </mxGeometry>
        </mxCell>
        <mxCell id="C0yg4FrweDamgOmbEFy_-203" value="not allowed" style="verticalAlign=bottom;edgeStyle=elbowEdgeStyle;elbow=vertical;curved=0;rounded=0;dashed=1;dashPattern=2 3;endArrow=block;fillColor=#f5f5f5;strokeColor=#666666;" parent="C0yg4FrweDamgOmbEFy_-296" edge="1">
          <mxGeometry relative="1" as="geometry">
            <Array as="points">
              <mxPoint x="648" y="360" />
            </Array>
            <mxPoint x="350" y="360" as="targetPoint" />
            <mxPoint x="710" y="359.9999999999998" as="sourcePoint" />
          </mxGeometry>
        </mxCell>
        <mxCell id="C0yg4FrweDamgOmbEFy_-204" value="alt" style="shape=umlFrame;pointerEvents=0;dropTarget=0;strokeColor=#666666;height=20;width=30;fillColor=#f5f5f5;fontColor=#333333;" parent="C0yg4FrweDamgOmbEFy_-296" vertex="1">
          <mxGeometry y="217" width="770" height="186" as="geometry" />
        </mxCell>
        <mxCell id="C0yg4FrweDamgOmbEFy_-205" value="[Eligible]" style="text;strokeColor=none;fillColor=none;align=left;verticalAlign=middle;whiteSpace=wrap;" parent="C0yg4FrweDamgOmbEFy_-204" vertex="1">
          <mxGeometry x="64.16666666666666" width="705.8333333333333" height="20" as="geometry" />
        </mxCell>
        <mxCell id="C0yg4FrweDamgOmbEFy_-206" value="                     [Not eligible]" style="shape=line;dashed=1;whiteSpace=wrap;verticalAlign=top;labelPosition=center;verticalLabelPosition=middle;align=left;strokeColor=#B3B3B3;" parent="C0yg4FrweDamgOmbEFy_-204" vertex="1">
          <mxGeometry y="98" width="770.0000000000001" height="2" as="geometry" />
        </mxCell>
        <mxCell id="C0yg4FrweDamgOmbEFy_-207" value="Student" style="shape=umlLifeline;perimeter=lifelinePerimeter;whiteSpace=wrap;container=1;dropTarget=0;collapsible=0;recursiveResize=0;outlineConnect=0;portConstraint=eastwest;newEdgeStyle={&quot;edgeStyle&quot;:&quot;elbowEdgeStyle&quot;,&quot;elbow&quot;:&quot;vertical&quot;,&quot;curved&quot;:0,&quot;rounded&quot;:0};size=65;fillColor=#f5f5f5;fontColor=#333333;strokeColor=#666666;" parent="C0yg4FrweDamgOmbEFy_-296" vertex="1">
          <mxGeometry x="270" width="150" height="438" as="geometry" />
        </mxCell>
        <mxCell id="C0yg4FrweDamgOmbEFy_-208" value="" style="points=[];perimeter=orthogonalPerimeter;outlineConnect=0;targetShapes=umlLifeline;portConstraint=eastwest;newEdgeStyle={&quot;edgeStyle&quot;:&quot;elbowEdgeStyle&quot;,&quot;elbow&quot;:&quot;vertical&quot;,&quot;curved&quot;:0,&quot;rounded&quot;:0};fillColor=#f5f5f5;fontColor=#333333;strokeColor=#666666;" parent="C0yg4FrweDamgOmbEFy_-207" vertex="1">
          <mxGeometry x="70" y="100" width="10" height="283" as="geometry" />
        </mxCell>
        <mxCell id="C0yg4FrweDamgOmbEFy_-209" value="" style="points=[];perimeter=orthogonalPerimeter;outlineConnect=0;targetShapes=umlLifeline;portConstraint=eastwest;newEdgeStyle={&quot;edgeStyle&quot;:&quot;elbowEdgeStyle&quot;,&quot;elbow&quot;:&quot;vertical&quot;,&quot;curved&quot;:0,&quot;rounded&quot;:0};fillColor=#f5f5f5;fontColor=#333333;strokeColor=#666666;" parent="C0yg4FrweDamgOmbEFy_-207" vertex="1">
          <mxGeometry x="76" y="150" width="10" height="50" as="geometry" />
        </mxCell>
        <mxCell id="C0yg4FrweDamgOmbEFy_-210" value="allowed" style="verticalAlign=bottom;edgeStyle=elbowEdgeStyle;elbow=vertical;curved=0;rounded=0;dashed=1;dashPattern=2 3;endArrow=block;fillColor=#f5f5f5;strokeColor=#666666;" parent="C0yg4FrweDamgOmbEFy_-296" edge="1">
          <mxGeometry relative="1" as="geometry">
            <Array as="points">
              <mxPoint x="178" y="297" />
            </Array>
            <mxPoint x="62.5" y="297" as="targetPoint" />
            <mxPoint x="340" y="297" as="sourcePoint" />
          </mxGeometry>
        </mxCell>
        <mxCell id="C0yg4FrweDamgOmbEFy_-211" value="not allowed" style="verticalAlign=bottom;edgeStyle=elbowEdgeStyle;elbow=vertical;curved=0;rounded=0;dashed=1;dashPattern=2 3;endArrow=block;fillColor=#f5f5f5;strokeColor=#666666;" parent="C0yg4FrweDamgOmbEFy_-296" edge="1">
          <mxGeometry relative="1" as="geometry">
            <Array as="points">
              <mxPoint x="178" y="383" />
            </Array>
            <mxPoint x="62.5" y="383" as="targetPoint" />
            <mxPoint x="340" y="383" as="sourcePoint" />
          </mxGeometry>
        </mxCell>
        <mxCell id="C0yg4FrweDamgOmbEFy_-212" value="" style="edgeStyle=elbowEdgeStyle;rounded=0;orthogonalLoop=1;jettySize=auto;html=1;elbow=vertical;curved=0;fillColor=#f5f5f5;strokeColor=#666666;" parent="C0yg4FrweDamgOmbEFy_-296" edge="1">
          <mxGeometry x="-0.009" y="12" relative="1" as="geometry">
            <mxPoint x="62.5" y="100.00333333333322" as="sourcePoint" />
            <mxPoint x="340" y="100.0769230769231" as="targetPoint" />
            <mxPoint as="offset" />
          </mxGeometry>
        </mxCell>
        <mxCell id="C0yg4FrweDamgOmbEFy_-213" value="wants to enroll" style="edgeLabel;html=1;align=center;verticalAlign=middle;resizable=0;points=[];" parent="C0yg4FrweDamgOmbEFy_-212" vertex="1" connectable="0">
          <mxGeometry x="0.1791" y="-1" relative="1" as="geometry">
            <mxPoint x="-26" y="-10" as="offset" />
          </mxGeometry>
        </mxCell>
        <mxCell id="C0yg4FrweDamgOmbEFy_-235" value="SqD anim" style="" parent="d1LrVMt3tTgJJ8YbboIR-0" />
        <mxCell id="C0yg4FrweDamgOmbEFy_-295" value="" style="group;fillColor=none;fontStyle=0" parent="C0yg4FrweDamgOmbEFy_-235" vertex="1" connectable="0">
          <mxGeometry x="-270" y="580" width="790" height="438" as="geometry" />
        </mxCell>
        <mxCell id="C0yg4FrweDamgOmbEFy_-282" value="Student" style="shape=umlLifeline;perimeter=lifelinePerimeter;whiteSpace=wrap;container=1;dropTarget=0;collapsible=0;recursiveResize=0;outlineConnect=0;portConstraint=eastwest;newEdgeStyle={&quot;edgeStyle&quot;:&quot;elbowEdgeStyle&quot;,&quot;elbow&quot;:&quot;vertical&quot;,&quot;curved&quot;:0,&quot;rounded&quot;:0};size=65;fontStyle=0;fillColor=#8DCDFF;strokeColor=#397BFF;strokeWidth=2;" parent="C0yg4FrweDamgOmbEFy_-295" vertex="1">
          <mxGeometry x="270" width="150" height="438" as="geometry" />
        </mxCell>
        <mxCell id="C0yg4FrweDamgOmbEFy_-283" value="" style="points=[];perimeter=orthogonalPerimeter;outlineConnect=0;targetShapes=umlLifeline;portConstraint=eastwest;newEdgeStyle={&quot;edgeStyle&quot;:&quot;elbowEdgeStyle&quot;,&quot;elbow&quot;:&quot;vertical&quot;,&quot;curved&quot;:0,&quot;rounded&quot;:0};fontStyle=0;fillColor=#8DCDFF;strokeColor=#397BFF;strokeWidth=2;" parent="C0yg4FrweDamgOmbEFy_-282" vertex="1">
          <mxGeometry x="70" y="100" width="10" height="283" as="geometry" />
        </mxCell>
        <mxCell id="C0yg4FrweDamgOmbEFy_-284" value="" style="points=[];perimeter=orthogonalPerimeter;outlineConnect=0;targetShapes=umlLifeline;portConstraint=eastwest;newEdgeStyle={&quot;edgeStyle&quot;:&quot;elbowEdgeStyle&quot;,&quot;elbow&quot;:&quot;vertical&quot;,&quot;curved&quot;:0,&quot;rounded&quot;:0};fontStyle=0;fillColor=#8DCDFF;strokeColor=#397BFF;strokeWidth=2;" parent="C0yg4FrweDamgOmbEFy_-282" vertex="1">
          <mxGeometry x="76" y="150" width="10" height="50" as="geometry" />
        </mxCell>
        <mxCell id="C0yg4FrweDamgOmbEFy_-272" value="student" style="shape=umlLifeline;perimeter=lifelinePerimeter;whiteSpace=wrap;container=1;dropTarget=0;collapsible=0;recursiveResize=0;outlineConnect=0;portConstraint=eastwest;newEdgeStyle={&quot;edgeStyle&quot;:&quot;elbowEdgeStyle&quot;,&quot;elbow&quot;:&quot;vertical&quot;,&quot;curved&quot;:0,&quot;rounded&quot;:0};participant=umlActor;verticalAlign=bottom;labelPosition=center;verticalLabelPosition=top;align=center;size=65;fontStyle=0;fillColor=#8DCDFF;strokeColor=#397BFF;strokeWidth=2;" parent="C0yg4FrweDamgOmbEFy_-295" vertex="1">
          <mxGeometry x="40" width="35" height="438" as="geometry" />
        </mxCell>
        <mxCell id="C0yg4FrweDamgOmbEFy_-273" value="" style="points=[];perimeter=orthogonalPerimeter;outlineConnect=0;targetShapes=umlLifeline;portConstraint=eastwest;newEdgeStyle={&quot;edgeStyle&quot;:&quot;elbowEdgeStyle&quot;,&quot;elbow&quot;:&quot;vertical&quot;,&quot;curved&quot;:0,&quot;rounded&quot;:0};fontStyle=0" parent="C0yg4FrweDamgOmbEFy_-272" vertex="1">
          <mxGeometry x="12.5" width="10" as="geometry" />
        </mxCell>
        <mxCell id="C0yg4FrweDamgOmbEFy_-274" value="" style="points=[];perimeter=orthogonalPerimeter;outlineConnect=0;targetShapes=umlLifeline;portConstraint=eastwest;newEdgeStyle={&quot;edgeStyle&quot;:&quot;elbowEdgeStyle&quot;,&quot;elbow&quot;:&quot;vertical&quot;,&quot;curved&quot;:0,&quot;rounded&quot;:0};fontStyle=0;fillColor=#8DCDFF;strokeColor=#397BFF;strokeWidth=2;" parent="C0yg4FrweDamgOmbEFy_-272" vertex="1">
          <mxGeometry x="12.5" y="90" width="10" height="293" as="geometry" />
        </mxCell>
        <mxCell id="C0yg4FrweDamgOmbEFy_-275" value="Professor" style="shape=umlLifeline;perimeter=lifelinePerimeter;whiteSpace=wrap;container=1;dropTarget=0;collapsible=0;recursiveResize=0;outlineConnect=0;portConstraint=eastwest;newEdgeStyle={&quot;edgeStyle&quot;:&quot;elbowEdgeStyle&quot;,&quot;elbow&quot;:&quot;vertical&quot;,&quot;curved&quot;:0,&quot;rounded&quot;:0};size=65;fontStyle=0;fillColor=#8DCDFF;strokeColor=#397BFF;strokeWidth=2;" parent="C0yg4FrweDamgOmbEFy_-295" vertex="1">
          <mxGeometry x="640" width="150" height="438" as="geometry" />
        </mxCell>
        <mxCell id="C0yg4FrweDamgOmbEFy_-276" value="" style="points=[];perimeter=orthogonalPerimeter;outlineConnect=0;targetShapes=umlLifeline;portConstraint=eastwest;newEdgeStyle={&quot;edgeStyle&quot;:&quot;elbowEdgeStyle&quot;,&quot;elbow&quot;:&quot;vertical&quot;,&quot;curved&quot;:0,&quot;rounded&quot;:0};fontStyle=0;fillColor=#8DCDFF;strokeColor=#397BFF;strokeWidth=2;" parent="C0yg4FrweDamgOmbEFy_-275" vertex="1">
          <mxGeometry x="70" y="110" width="10" height="250" as="geometry" />
        </mxCell>
        <mxCell id="C0yg4FrweDamgOmbEFy_-277" value="requestEnrollment(&quot;AdvancedAI101&quot;)" style="verticalAlign=bottom;edgeStyle=elbowEdgeStyle;elbow=vertical;curved=0;rounded=0;endArrow=block;fontStyle=0;fillColor=#dae8fc;strokeColor=#397BFF;strokeWidth=3;" parent="C0yg4FrweDamgOmbEFy_-295" edge="1">
          <mxGeometry relative="1" as="geometry">
            <Array as="points">
              <mxPoint x="647" y="110" />
            </Array>
            <mxPoint x="350" y="110" as="sourcePoint" />
            <mxPoint x="710" y="110" as="targetPoint" />
          </mxGeometry>
        </mxCell>
        <mxCell id="C0yg4FrweDamgOmbEFy_-278" value="isEligibleToEnroll(&quot;AdvancedAI101&quot;)" style="verticalAlign=bottom;edgeStyle=elbowEdgeStyle;elbow=vertical;curved=0;rounded=0;endArrow=block;fontStyle=0;fillColor=#dae8fc;strokeColor=#397BFF;strokeWidth=3;" parent="C0yg4FrweDamgOmbEFy_-295" source="C0yg4FrweDamgOmbEFy_-276" edge="1">
          <mxGeometry relative="1" as="geometry">
            <Array as="points">
              <mxPoint x="710" y="150" />
            </Array>
            <mxPoint x="803" y="150" as="sourcePoint" />
            <mxPoint x="356" y="150" as="targetPoint" />
          </mxGeometry>
        </mxCell>
        <mxCell id="C0yg4FrweDamgOmbEFy_-279" value="true/false" style="verticalAlign=bottom;edgeStyle=elbowEdgeStyle;elbow=vertical;curved=0;rounded=0;dashed=1;dashPattern=2 3;endArrow=block;fontStyle=0;fillColor=#dae8fc;strokeColor=#397BFF;strokeWidth=3;" parent="C0yg4FrweDamgOmbEFy_-295" edge="1">
          <mxGeometry relative="1" as="geometry">
            <Array as="points">
              <mxPoint x="670" y="200" />
            </Array>
            <mxPoint x="345.2468354430382" y="202" as="sourcePoint" />
            <mxPoint x="710" y="200" as="targetPoint" />
          </mxGeometry>
        </mxCell>
        <mxCell id="C0yg4FrweDamgOmbEFy_-280" value="allowed" style="verticalAlign=bottom;edgeStyle=elbowEdgeStyle;elbow=vertical;curved=0;rounded=0;dashed=1;dashPattern=2 3;endArrow=block;fontStyle=0;fillColor=#dae8fc;strokeColor=#397BFF;strokeWidth=3;" parent="C0yg4FrweDamgOmbEFy_-295" edge="1">
          <mxGeometry relative="1" as="geometry">
            <Array as="points">
              <mxPoint x="648" y="272" />
            </Array>
            <mxPoint x="350" y="272" as="targetPoint" />
            <mxPoint x="710" y="272" as="sourcePoint" />
          </mxGeometry>
        </mxCell>
        <mxCell id="C0yg4FrweDamgOmbEFy_-281" value="not allowed" style="verticalAlign=bottom;edgeStyle=elbowEdgeStyle;elbow=vertical;curved=0;rounded=0;dashed=1;dashPattern=2 3;endArrow=block;fontStyle=0;fillColor=#dae8fc;strokeColor=#397BFF;strokeWidth=3;" parent="C0yg4FrweDamgOmbEFy_-295" edge="1">
          <mxGeometry relative="1" as="geometry">
            <Array as="points">
              <mxPoint x="648" y="360" />
            </Array>
            <mxPoint x="350" y="360" as="targetPoint" />
            <mxPoint x="710" y="359.9999999999998" as="sourcePoint" />
          </mxGeometry>
        </mxCell>
        <mxCell id="C0yg4FrweDamgOmbEFy_-285" value="allowed" style="verticalAlign=bottom;edgeStyle=elbowEdgeStyle;elbow=vertical;curved=0;rounded=0;dashed=1;dashPattern=2 3;endArrow=block;fontStyle=0;strokeWidth=3;fillColor=#dae8fc;strokeColor=#397BFF;" parent="C0yg4FrweDamgOmbEFy_-295" edge="1">
          <mxGeometry relative="1" as="geometry">
            <Array as="points">
              <mxPoint x="178" y="297" />
            </Array>
            <mxPoint x="62.5" y="297" as="targetPoint" />
            <mxPoint x="340" y="297" as="sourcePoint" />
          </mxGeometry>
        </mxCell>
        <mxCell id="C0yg4FrweDamgOmbEFy_-286" value="not allowed" style="verticalAlign=bottom;edgeStyle=elbowEdgeStyle;elbow=vertical;curved=0;rounded=0;dashed=1;dashPattern=2 3;endArrow=block;fontStyle=0;strokeWidth=3;fillColor=#dae8fc;strokeColor=#397BFF;" parent="C0yg4FrweDamgOmbEFy_-295" edge="1">
          <mxGeometry relative="1" as="geometry">
            <Array as="points">
              <mxPoint x="178" y="383" />
            </Array>
            <mxPoint x="62.5" y="383" as="targetPoint" />
            <mxPoint x="340" y="383" as="sourcePoint" />
          </mxGeometry>
        </mxCell>
        <mxCell id="C0yg4FrweDamgOmbEFy_-287" value="" style="edgeStyle=elbowEdgeStyle;rounded=0;orthogonalLoop=1;jettySize=auto;html=1;elbow=vertical;curved=0;fontStyle=0;strokeWidth=3;fillColor=#dae8fc;strokeColor=#397BFF;" parent="C0yg4FrweDamgOmbEFy_-295" edge="1">
          <mxGeometry x="-0.009" y="12" relative="1" as="geometry">
            <mxPoint x="62.5" y="100.0033333333331" as="sourcePoint" />
            <mxPoint x="340" y="100.0769230769231" as="targetPoint" />
            <mxPoint as="offset" />
          </mxGeometry>
        </mxCell>
        <mxCell id="C0yg4FrweDamgOmbEFy_-288" value="wants to enroll" style="edgeLabel;html=1;align=center;verticalAlign=middle;resizable=0;points=[];fontStyle=0" parent="C0yg4FrweDamgOmbEFy_-287" vertex="1" connectable="0">
          <mxGeometry x="0.1791" y="-1" relative="1" as="geometry">
            <mxPoint x="-26" y="-10" as="offset" />
          </mxGeometry>
        </mxCell>
        <mxCell id="C0yg4FrweDamgOmbEFy_-289" value="alt" style="shape=umlFrame;pointerEvents=0;dropTarget=0;strokeColor=#397BFF;height=20;width=30;fontStyle=0;fillColor=#8DCDFF;strokeWidth=2;" parent="C0yg4FrweDamgOmbEFy_-295" vertex="1">
          <mxGeometry y="217" width="770" height="186" as="geometry" />
        </mxCell>
        <mxCell id="C0yg4FrweDamgOmbEFy_-290" value="[Eligible]" style="text;strokeColor=none;fillColor=none;align=left;verticalAlign=middle;whiteSpace=wrap;fontStyle=0" parent="C0yg4FrweDamgOmbEFy_-289" vertex="1">
          <mxGeometry x="64.16666666666666" width="705.8333333333333" height="20" as="geometry" />
        </mxCell>
        <mxCell id="C0yg4FrweDamgOmbEFy_-291" value="                     [Not eligible]" style="shape=line;dashed=1;whiteSpace=wrap;verticalAlign=top;labelPosition=center;verticalLabelPosition=middle;align=left;strokeColor=#B3B3B3;fontStyle=0;strokeWidth=2;" parent="C0yg4FrweDamgOmbEFy_-289" vertex="1">
          <mxGeometry y="98" width="770.0000000000001" height="2" as="geometry" />
        </mxCell>
        <mxCell id="d1LrVMt3tTgJJ8YbboIR-79" value="CD" style="locked=1;" parent="d1LrVMt3tTgJJ8YbboIR-0" />
        <mxCell id="C0yg4FrweDamgOmbEFy_-294" value="" style="group" parent="d1LrVMt3tTgJJ8YbboIR-79" vertex="1" connectable="0">
          <mxGeometry x="-210" y="80" width="688" height="430" as="geometry" />
        </mxCell>
        <mxCell id="C0yg4FrweDamgOmbEFy_-38" value="cc" style="group;fillColor=default;editable=1;movable=1;resizable=1;rotatable=1;deletable=1;locked=0;connectable=1;opacity=90;container=0;fontStyle=0" parent="C0yg4FrweDamgOmbEFy_-294" vertex="1" connectable="0">
          <mxGeometry width="688" height="430" as="geometry" />
        </mxCell>
        <mxCell id="C0yg4FrweDamgOmbEFy_-39" value="Person" style="swimlane;fontStyle=2;align=center;verticalAlign=top;childLayout=stackLayout;horizontal=1;startSize=26;horizontalStack=0;resizeParent=1;resizeLast=0;collapsible=1;marginBottom=0;rounded=0;shadow=0;strokeWidth=1;editable=1;movable=1;resizable=1;rotatable=1;deletable=1;locked=0;connectable=1;fillColor=#f5f5f5;fontColor=#333333;strokeColor=#666666;" parent="C0yg4FrweDamgOmbEFy_-294" vertex="1">
          <mxGeometry x="240" width="160" height="138" as="geometry">
            <mxRectangle x="230" y="140" width="160" height="26" as="alternateBounds" />
          </mxGeometry>
        </mxCell>
        <mxCell id="C0yg4FrweDamgOmbEFy_-40" value="+name: str" style="text;align=left;verticalAlign=top;spacingLeft=4;spacingRight=4;overflow=hidden;rotatable=1;points=[[0,0.5],[1,0.5]];portConstraint=eastwest;editable=1;movable=1;resizable=1;deletable=1;locked=0;connectable=1;fontStyle=0;fillColor=#f5f5f5;fontColor=#333333;strokeColor=#666666;" parent="C0yg4FrweDamgOmbEFy_-39" vertex="1">
          <mxGeometry y="26" width="160" height="26" as="geometry" />
        </mxCell>
        <mxCell id="C0yg4FrweDamgOmbEFy_-41" value="+phoneNumber: str" style="text;align=left;verticalAlign=top;spacingLeft=4;spacingRight=4;overflow=hidden;rotatable=1;points=[[0,0.5],[1,0.5]];portConstraint=eastwest;rounded=0;shadow=0;html=0;editable=1;movable=1;resizable=1;deletable=1;locked=0;connectable=1;fontStyle=0;fillColor=#f5f5f5;fontColor=#333333;strokeColor=#666666;" parent="C0yg4FrweDamgOmbEFy_-39" vertex="1">
          <mxGeometry y="52" width="160" height="26" as="geometry" />
        </mxCell>
        <mxCell id="C0yg4FrweDamgOmbEFy_-42" value="+emailAddress: str" style="text;align=left;verticalAlign=top;spacingLeft=4;spacingRight=4;overflow=hidden;rotatable=1;points=[[0,0.5],[1,0.5]];portConstraint=eastwest;rounded=0;shadow=0;html=0;editable=1;movable=1;resizable=1;deletable=1;locked=0;connectable=1;fontStyle=0;fillColor=#f5f5f5;fontColor=#333333;strokeColor=#666666;" parent="C0yg4FrweDamgOmbEFy_-39" vertex="1">
          <mxGeometry y="78" width="160" height="26" as="geometry" />
        </mxCell>
        <mxCell id="C0yg4FrweDamgOmbEFy_-43" value="" style="line;html=1;strokeWidth=1;align=left;verticalAlign=middle;spacingTop=-1;spacingLeft=3;spacingRight=3;rotatable=1;labelPosition=right;points=[];portConstraint=eastwest;editable=1;movable=1;resizable=1;deletable=1;locked=0;connectable=1;fontStyle=0" parent="C0yg4FrweDamgOmbEFy_-39" vertex="1">
          <mxGeometry y="104" width="160" height="8" as="geometry" />
        </mxCell>
        <mxCell id="C0yg4FrweDamgOmbEFy_-44" value="+purchaseParkingPass()" style="text;align=left;verticalAlign=top;spacingLeft=4;spacingRight=4;overflow=hidden;rotatable=1;points=[[0,0.5],[1,0.5]];portConstraint=eastwest;editable=1;movable=1;resizable=1;deletable=1;locked=0;connectable=1;fontStyle=0;fillColor=#f5f5f5;fontColor=#333333;strokeColor=#666666;" parent="C0yg4FrweDamgOmbEFy_-39" vertex="1">
          <mxGeometry y="112" width="160" height="26" as="geometry" />
        </mxCell>
        <mxCell id="C0yg4FrweDamgOmbEFy_-45" value="Student" style="swimlane;fontStyle=0;align=center;verticalAlign=top;childLayout=stackLayout;horizontal=1;startSize=26;horizontalStack=0;resizeParent=1;resizeLast=0;collapsible=1;marginBottom=0;rounded=0;shadow=0;strokeWidth=1;editable=1;movable=1;resizable=1;rotatable=1;deletable=1;locked=0;connectable=1;fillColor=#f5f5f5;fontColor=#333333;strokeColor=#666666;" parent="C0yg4FrweDamgOmbEFy_-294" vertex="1">
          <mxGeometry x="10" y="260" width="230" height="170" as="geometry">
            <mxRectangle x="130" y="380" width="160" height="26" as="alternateBounds" />
          </mxGeometry>
        </mxCell>
        <mxCell id="C0yg4FrweDamgOmbEFy_-46" value="+studentNumber: int" style="text;align=left;verticalAlign=top;spacingLeft=4;spacingRight=4;overflow=hidden;rotatable=1;points=[[0,0.5],[1,0.5]];portConstraint=eastwest;fontStyle=0;editable=1;movable=1;resizable=1;deletable=1;locked=0;connectable=1;fillColor=#f5f5f5;fontColor=#333333;strokeColor=#666666;" parent="C0yg4FrweDamgOmbEFy_-45" vertex="1">
          <mxGeometry y="26" width="230" height="26" as="geometry" />
        </mxCell>
        <mxCell id="C0yg4FrweDamgOmbEFy_-47" value="+averageMark: int" style="text;align=left;verticalAlign=top;spacingLeft=4;spacingRight=4;overflow=hidden;rotatable=1;points=[[0,0.5],[1,0.5]];portConstraint=eastwest;rounded=0;shadow=0;html=0;editable=1;movable=1;resizable=1;deletable=1;locked=0;connectable=1;fontStyle=0;fillColor=#f5f5f5;fontColor=#333333;strokeColor=#666666;" parent="C0yg4FrweDamgOmbEFy_-45" vertex="1">
          <mxGeometry y="52" width="230" height="26" as="geometry" />
        </mxCell>
        <mxCell id="C0yg4FrweDamgOmbEFy_-48" value="" style="line;html=1;strokeWidth=1;align=left;verticalAlign=middle;spacingTop=-1;spacingLeft=3;spacingRight=3;rotatable=1;labelPosition=right;points=[];portConstraint=eastwest;editable=1;movable=1;resizable=1;deletable=1;locked=0;connectable=1;fontStyle=0" parent="C0yg4FrweDamgOmbEFy_-45" vertex="1">
          <mxGeometry y="78" width="230" height="8" as="geometry" />
        </mxCell>
        <mxCell id="C0yg4FrweDamgOmbEFy_-49" value="+isEligibleToEnroll(str): bool" style="text;align=left;verticalAlign=top;spacingLeft=4;spacingRight=4;overflow=hidden;rotatable=1;points=[[0,0.5],[1,0.5]];portConstraint=eastwest;fontStyle=4;editable=1;movable=1;resizable=1;deletable=1;locked=0;connectable=1;fillColor=#f5f5f5;fontColor=#333333;strokeColor=#666666;" parent="C0yg4FrweDamgOmbEFy_-45" vertex="1">
          <mxGeometry y="86" width="230" height="26" as="geometry" />
        </mxCell>
        <mxCell id="C0yg4FrweDamgOmbEFy_-50" value="+getSeminarsTaken(): int&#xa;" style="text;align=left;verticalAlign=top;spacingLeft=4;spacingRight=4;overflow=hidden;rotatable=1;points=[[0,0.5],[1,0.5]];portConstraint=eastwest;editable=1;movable=1;resizable=1;deletable=1;locked=0;connectable=1;fontStyle=0;fillColor=#f5f5f5;fontColor=#333333;strokeColor=#666666;" parent="C0yg4FrweDamgOmbEFy_-45" vertex="1">
          <mxGeometry y="112" width="230" height="26" as="geometry" />
        </mxCell>
        <mxCell id="C0yg4FrweDamgOmbEFy_-51" value="+requestEnrollment(course str): bool" style="text;align=left;verticalAlign=top;spacingLeft=4;spacingRight=4;overflow=hidden;rotatable=1;points=[[0,0.5],[1,0.5]];portConstraint=eastwest;editable=1;movable=1;resizable=1;deletable=1;locked=0;connectable=1;fontStyle=0;fillColor=#f5f5f5;fontColor=#333333;strokeColor=#666666;" parent="C0yg4FrweDamgOmbEFy_-45" vertex="1">
          <mxGeometry y="138" width="230" height="26" as="geometry" />
        </mxCell>
        <mxCell id="C0yg4FrweDamgOmbEFy_-52" value="" style="endArrow=block;endSize=10;endFill=0;shadow=0;strokeWidth=1;rounded=0;edgeStyle=elbowEdgeStyle;elbow=vertical;editable=1;movable=1;resizable=1;rotatable=1;deletable=1;locked=0;connectable=1;fontStyle=0;fillColor=#f5f5f5;strokeColor=#666666;" parent="C0yg4FrweDamgOmbEFy_-294" source="C0yg4FrweDamgOmbEFy_-45" target="C0yg4FrweDamgOmbEFy_-39" edge="1">
          <mxGeometry width="160" relative="1" as="geometry">
            <mxPoint x="220" y="83" as="sourcePoint" />
            <mxPoint x="220" y="83" as="targetPoint" />
          </mxGeometry>
        </mxCell>
        <mxCell id="C0yg4FrweDamgOmbEFy_-53" value="Professor" style="swimlane;fontStyle=0;align=center;verticalAlign=top;childLayout=stackLayout;horizontal=1;startSize=26;horizontalStack=0;resizeParent=1;resizeLast=0;collapsible=1;marginBottom=0;rounded=0;shadow=0;strokeWidth=1;editable=1;movable=1;resizable=1;rotatable=1;deletable=1;locked=0;connectable=1;fillColor=#f5f5f5;fontColor=#333333;strokeColor=#666666;" parent="C0yg4FrweDamgOmbEFy_-294" vertex="1">
          <mxGeometry x="400" y="260" width="160" height="138" as="geometry">
            <mxRectangle x="340" y="380" width="170" height="26" as="alternateBounds" />
          </mxGeometry>
        </mxCell>
        <mxCell id="C0yg4FrweDamgOmbEFy_-54" value="/salary: int" style="text;align=left;verticalAlign=top;spacingLeft=4;spacingRight=4;overflow=hidden;rotatable=1;points=[[0,0.5],[1,0.5]];portConstraint=eastwest;editable=1;movable=1;resizable=1;deletable=1;locked=0;connectable=1;fontStyle=0;fillColor=#f5f5f5;fontColor=#333333;strokeColor=#666666;" parent="C0yg4FrweDamgOmbEFy_-53" vertex="1">
          <mxGeometry y="26" width="160" height="26" as="geometry" />
        </mxCell>
        <mxCell id="C0yg4FrweDamgOmbEFy_-55" value="#staffNumber: int" style="text;align=left;verticalAlign=top;spacingLeft=4;spacingRight=4;overflow=hidden;rotatable=1;points=[[0,0.5],[1,0.5]];portConstraint=eastwest;editable=1;movable=1;resizable=1;deletable=1;locked=0;connectable=1;fontStyle=0;fillColor=#f5f5f5;fontColor=#333333;strokeColor=#666666;" parent="C0yg4FrweDamgOmbEFy_-53" vertex="1">
          <mxGeometry y="52" width="160" height="26" as="geometry" />
        </mxCell>
        <mxCell id="C0yg4FrweDamgOmbEFy_-56" value="-yearsOfService: int" style="text;align=left;verticalAlign=top;spacingLeft=4;spacingRight=4;overflow=hidden;rotatable=1;points=[[0,0.5],[1,0.5]];portConstraint=eastwest;editable=1;movable=1;resizable=1;deletable=1;locked=0;connectable=1;fontStyle=0;fillColor=#f5f5f5;fontColor=#333333;strokeColor=#666666;" parent="C0yg4FrweDamgOmbEFy_-53" vertex="1">
          <mxGeometry y="78" width="160" height="26" as="geometry" />
        </mxCell>
        <mxCell id="C0yg4FrweDamgOmbEFy_-57" value="+numberOfClasses: int" style="text;align=left;verticalAlign=top;spacingLeft=4;spacingRight=4;overflow=hidden;rotatable=1;points=[[0,0.5],[1,0.5]];portConstraint=eastwest;editable=1;movable=1;resizable=1;deletable=1;locked=0;connectable=1;fontStyle=0;fillColor=#f5f5f5;fontColor=#333333;strokeColor=#666666;" parent="C0yg4FrweDamgOmbEFy_-53" vertex="1">
          <mxGeometry y="104" width="160" height="26" as="geometry" />
        </mxCell>
        <mxCell id="C0yg4FrweDamgOmbEFy_-58" value="" style="line;html=1;strokeWidth=1;align=left;verticalAlign=middle;spacingTop=-1;spacingLeft=3;spacingRight=3;rotatable=1;labelPosition=right;points=[];portConstraint=eastwest;editable=1;movable=1;resizable=1;deletable=1;locked=0;connectable=1;fontStyle=0" parent="C0yg4FrweDamgOmbEFy_-53" vertex="1">
          <mxGeometry y="130" width="160" height="8" as="geometry" />
        </mxCell>
        <mxCell id="C0yg4FrweDamgOmbEFy_-59" value="" style="endArrow=block;endSize=10;endFill=0;shadow=0;strokeWidth=1;rounded=0;edgeStyle=elbowEdgeStyle;elbow=vertical;editable=1;movable=1;resizable=1;rotatable=1;deletable=1;locked=0;connectable=1;fontStyle=0;fillColor=#f5f5f5;strokeColor=#666666;" parent="C0yg4FrweDamgOmbEFy_-294" source="C0yg4FrweDamgOmbEFy_-53" target="C0yg4FrweDamgOmbEFy_-39" edge="1">
          <mxGeometry width="160" relative="1" as="geometry">
            <mxPoint x="230" y="253" as="sourcePoint" />
            <mxPoint x="330" y="151" as="targetPoint" />
          </mxGeometry>
        </mxCell>
        <mxCell id="C0yg4FrweDamgOmbEFy_-60" value="Address" style="swimlane;fontStyle=0;align=center;verticalAlign=top;childLayout=stackLayout;horizontal=1;startSize=26;horizontalStack=0;resizeParent=1;resizeLast=0;collapsible=1;marginBottom=0;rounded=0;shadow=0;strokeWidth=1;editable=1;movable=1;resizable=1;rotatable=1;deletable=1;locked=0;connectable=1;fillColor=#f5f5f5;fontColor=#333333;strokeColor=#666666;" parent="C0yg4FrweDamgOmbEFy_-294" vertex="1">
          <mxGeometry x="528" width="160" height="216" as="geometry">
            <mxRectangle x="550" y="140" width="160" height="26" as="alternateBounds" />
          </mxGeometry>
        </mxCell>
        <mxCell id="C0yg4FrweDamgOmbEFy_-61" value="+street: str" style="text;align=left;verticalAlign=top;spacingLeft=4;spacingRight=4;overflow=hidden;rotatable=1;points=[[0,0.5],[1,0.5]];portConstraint=eastwest;editable=1;movable=1;resizable=1;deletable=1;locked=0;connectable=1;fontStyle=0;fillColor=#f5f5f5;fontColor=#333333;strokeColor=#666666;" parent="C0yg4FrweDamgOmbEFy_-60" vertex="1">
          <mxGeometry y="26" width="160" height="26" as="geometry" />
        </mxCell>
        <mxCell id="C0yg4FrweDamgOmbEFy_-62" value="+city: str" style="text;align=left;verticalAlign=top;spacingLeft=4;spacingRight=4;overflow=hidden;rotatable=1;points=[[0,0.5],[1,0.5]];portConstraint=eastwest;rounded=0;shadow=0;html=0;editable=1;movable=1;resizable=1;deletable=1;locked=0;connectable=1;fontStyle=0;fillColor=#f5f5f5;fontColor=#333333;strokeColor=#666666;" parent="C0yg4FrweDamgOmbEFy_-60" vertex="1">
          <mxGeometry y="52" width="160" height="26" as="geometry" />
        </mxCell>
        <mxCell id="C0yg4FrweDamgOmbEFy_-63" value="+state: str" style="text;align=left;verticalAlign=top;spacingLeft=4;spacingRight=4;overflow=hidden;rotatable=1;points=[[0,0.5],[1,0.5]];portConstraint=eastwest;rounded=0;shadow=0;html=0;editable=1;movable=1;resizable=1;deletable=1;locked=0;connectable=1;fontStyle=0;fillColor=#f5f5f5;fontColor=#333333;strokeColor=#666666;" parent="C0yg4FrweDamgOmbEFy_-60" vertex="1">
          <mxGeometry y="78" width="160" height="26" as="geometry" />
        </mxCell>
        <mxCell id="C0yg4FrweDamgOmbEFy_-64" value="+postalCode: int" style="text;align=left;verticalAlign=top;spacingLeft=4;spacingRight=4;overflow=hidden;rotatable=1;points=[[0,0.5],[1,0.5]];portConstraint=eastwest;rounded=0;shadow=0;html=0;editable=1;movable=1;resizable=1;deletable=1;locked=0;connectable=1;fontStyle=0;fillColor=#f5f5f5;fontColor=#333333;strokeColor=#666666;" parent="C0yg4FrweDamgOmbEFy_-60" vertex="1">
          <mxGeometry y="104" width="160" height="26" as="geometry" />
        </mxCell>
        <mxCell id="C0yg4FrweDamgOmbEFy_-65" value="+country: str" style="text;align=left;verticalAlign=top;spacingLeft=4;spacingRight=4;overflow=hidden;rotatable=1;points=[[0,0.5],[1,0.5]];portConstraint=eastwest;rounded=0;shadow=0;html=0;editable=1;movable=1;resizable=1;deletable=1;locked=0;connectable=1;fontStyle=0;fillColor=#f5f5f5;fontColor=#333333;strokeColor=#666666;" parent="C0yg4FrweDamgOmbEFy_-60" vertex="1">
          <mxGeometry y="130" width="160" height="26" as="geometry" />
        </mxCell>
        <mxCell id="C0yg4FrweDamgOmbEFy_-66" value="" style="line;html=1;strokeWidth=1;align=left;verticalAlign=middle;spacingTop=-1;spacingLeft=3;spacingRight=3;rotatable=1;labelPosition=right;points=[];portConstraint=eastwest;editable=1;movable=1;resizable=1;deletable=1;locked=0;connectable=1;fontStyle=0" parent="C0yg4FrweDamgOmbEFy_-60" vertex="1">
          <mxGeometry y="156" width="160" height="8" as="geometry" />
        </mxCell>
        <mxCell id="C0yg4FrweDamgOmbEFy_-67" value="-validate(): bool" style="text;align=left;verticalAlign=top;spacingLeft=4;spacingRight=4;overflow=hidden;rotatable=1;points=[[0,0.5],[1,0.5]];portConstraint=eastwest;editable=1;movable=1;resizable=1;deletable=1;locked=0;connectable=1;fontStyle=0;fillColor=#f5f5f5;fontColor=#333333;strokeColor=#666666;" parent="C0yg4FrweDamgOmbEFy_-60" vertex="1">
          <mxGeometry y="164" width="160" height="26" as="geometry" />
        </mxCell>
        <mxCell id="C0yg4FrweDamgOmbEFy_-68" value="+outputAsLabel(): str" style="text;align=left;verticalAlign=top;spacingLeft=4;spacingRight=4;overflow=hidden;rotatable=1;points=[[0,0.5],[1,0.5]];portConstraint=eastwest;editable=1;movable=1;resizable=1;deletable=1;locked=0;connectable=1;fontStyle=0;fillColor=#f5f5f5;fontColor=#333333;strokeColor=#666666;" parent="C0yg4FrweDamgOmbEFy_-60" vertex="1">
          <mxGeometry y="190" width="160" height="26" as="geometry" />
        </mxCell>
        <mxCell id="C0yg4FrweDamgOmbEFy_-69" value="" style="endArrow=open;shadow=0;strokeWidth=1;rounded=0;endFill=1;edgeStyle=elbowEdgeStyle;elbow=vertical;editable=1;movable=1;resizable=1;rotatable=1;deletable=1;locked=0;connectable=1;fontStyle=0;fillColor=#f5f5f5;strokeColor=#666666;" parent="C0yg4FrweDamgOmbEFy_-294" source="C0yg4FrweDamgOmbEFy_-39" target="C0yg4FrweDamgOmbEFy_-60" edge="1">
          <mxGeometry x="0.5" y="41" relative="1" as="geometry">
            <mxPoint x="400" y="72" as="sourcePoint" />
            <mxPoint x="560" y="72" as="targetPoint" />
            <mxPoint x="-40" y="32" as="offset" />
          </mxGeometry>
        </mxCell>
        <mxCell id="C0yg4FrweDamgOmbEFy_-70" value="0..1" style="resizable=1;align=left;verticalAlign=bottom;labelBackgroundColor=none;fontSize=12;editable=1;movable=1;rotatable=1;deletable=1;locked=0;connectable=1;fontStyle=0" parent="C0yg4FrweDamgOmbEFy_-69" connectable="0" vertex="1">
          <mxGeometry x="-1" relative="1" as="geometry">
            <mxPoint y="1" as="offset" />
          </mxGeometry>
        </mxCell>
        <mxCell id="C0yg4FrweDamgOmbEFy_-71" value="1" style="resizable=1;align=right;verticalAlign=bottom;labelBackgroundColor=none;fontSize=12;editable=1;movable=1;rotatable=1;deletable=1;locked=0;connectable=1;fontStyle=0" parent="C0yg4FrweDamgOmbEFy_-69" connectable="0" vertex="1">
          <mxGeometry x="1" relative="1" as="geometry">
            <mxPoint x="-7" y="21" as="offset" />
          </mxGeometry>
        </mxCell>
        <mxCell id="C0yg4FrweDamgOmbEFy_-72" value="lives at" style="text;html=1;resizable=1;points=[];;align=center;verticalAlign=middle;labelBackgroundColor=none;rounded=0;shadow=0;strokeWidth=1;fontSize=12;editable=1;movable=1;rotatable=1;deletable=1;locked=0;connectable=1;fontStyle=0" parent="C0yg4FrweDamgOmbEFy_-69" vertex="1" connectable="0">
          <mxGeometry x="0.5" y="49" relative="1" as="geometry">
            <mxPoint x="-38" y="40" as="offset" />
          </mxGeometry>
        </mxCell>
        <mxCell id="C0yg4FrweDamgOmbEFy_-73" value="interacts" style="edgeStyle=orthogonalEdgeStyle;rounded=0;orthogonalLoop=1;jettySize=auto;html=1;entryX=1;entryY=0.5;entryDx=0;entryDy=0;endArrow=open;endFill=0;editable=1;movable=1;resizable=1;rotatable=1;deletable=1;locked=0;connectable=1;strokeWidth=1;fontStyle=0;startArrow=open;startFill=0;fillColor=#f5f5f5;strokeColor=#666666;" parent="C0yg4FrweDamgOmbEFy_-294" source="C0yg4FrweDamgOmbEFy_-54" target="C0yg4FrweDamgOmbEFy_-46" edge="1">
          <mxGeometry y="-9" relative="1" as="geometry">
            <mxPoint as="offset" />
          </mxGeometry>
        </mxCell>
        <mxCell id="C0yg4FrweDamgOmbEFy_-234" value="CD anim" style="" parent="d1LrVMt3tTgJJ8YbboIR-0" />
        <mxCell id="C0yg4FrweDamgOmbEFy_-293" value="" style="group;fillColor=none;strokeColor=#FFFFFF;" parent="C0yg4FrweDamgOmbEFy_-234" vertex="1" connectable="0">
          <mxGeometry x="-210" y="80" width="688" height="430" as="geometry" />
        </mxCell>
        <mxCell id="C0yg4FrweDamgOmbEFy_-236" value="cc" style="group;fillColor=default;editable=1;movable=1;resizable=1;rotatable=1;deletable=1;locked=0;connectable=1;opacity=90;container=0;fontStyle=1" parent="C0yg4FrweDamgOmbEFy_-293" vertex="1" connectable="0">
          <mxGeometry width="688" height="430" as="geometry" />
        </mxCell>
        <mxCell id="C0yg4FrweDamgOmbEFy_-237" value="Person" style="swimlane;fontStyle=3;align=center;verticalAlign=top;childLayout=stackLayout;horizontal=1;startSize=26;horizontalStack=0;resizeParent=1;resizeLast=0;collapsible=1;marginBottom=0;rounded=0;shadow=0;strokeWidth=1;editable=1;movable=1;resizable=1;rotatable=1;deletable=1;locked=0;connectable=1;fillColor=#8DCDFF;strokeColor=#397BFF;" parent="C0yg4FrweDamgOmbEFy_-293" vertex="1">
          <mxGeometry x="240" width="160" height="138" as="geometry">
            <mxRectangle x="230" y="140" width="160" height="26" as="alternateBounds" />
          </mxGeometry>
        </mxCell>
        <mxCell id="C0yg4FrweDamgOmbEFy_-238" value="+name: str" style="text;align=left;verticalAlign=top;spacingLeft=4;spacingRight=4;overflow=hidden;rotatable=1;points=[[0,0.5],[1,0.5]];portConstraint=eastwest;editable=1;movable=1;resizable=1;deletable=1;locked=0;connectable=1;fillColor=#8DCDFF;strokeColor=#397BFF;fontStyle=1" parent="C0yg4FrweDamgOmbEFy_-237" vertex="1">
          <mxGeometry y="26" width="160" height="26" as="geometry" />
        </mxCell>
        <mxCell id="C0yg4FrweDamgOmbEFy_-239" value="+phoneNumber: str" style="text;align=left;verticalAlign=top;spacingLeft=4;spacingRight=4;overflow=hidden;rotatable=1;points=[[0,0.5],[1,0.5]];portConstraint=eastwest;rounded=0;shadow=0;html=0;editable=1;movable=1;resizable=1;deletable=1;locked=0;connectable=1;fillColor=#8DCDFF;strokeColor=#397BFF;fontStyle=1" parent="C0yg4FrweDamgOmbEFy_-237" vertex="1">
          <mxGeometry y="52" width="160" height="26" as="geometry" />
        </mxCell>
        <mxCell id="C0yg4FrweDamgOmbEFy_-240" value="+emailAddress: str" style="text;align=left;verticalAlign=top;spacingLeft=4;spacingRight=4;overflow=hidden;rotatable=1;points=[[0,0.5],[1,0.5]];portConstraint=eastwest;rounded=0;shadow=0;html=0;editable=1;movable=1;resizable=1;deletable=1;locked=0;connectable=1;fillColor=#8DCDFF;strokeColor=#397BFF;fontStyle=1" parent="C0yg4FrweDamgOmbEFy_-237" vertex="1">
          <mxGeometry y="78" width="160" height="26" as="geometry" />
        </mxCell>
        <mxCell id="C0yg4FrweDamgOmbEFy_-241" value="" style="line;html=1;strokeWidth=1;align=left;verticalAlign=middle;spacingTop=-1;spacingLeft=3;spacingRight=3;rotatable=1;labelPosition=right;points=[];portConstraint=eastwest;editable=1;movable=1;resizable=1;deletable=1;locked=0;connectable=1;fontStyle=1" parent="C0yg4FrweDamgOmbEFy_-237" vertex="1">
          <mxGeometry y="104" width="160" height="8" as="geometry" />
        </mxCell>
        <mxCell id="C0yg4FrweDamgOmbEFy_-242" value="+purchaseParkingPass()" style="text;align=left;verticalAlign=top;spacingLeft=4;spacingRight=4;overflow=hidden;rotatable=1;points=[[0,0.5],[1,0.5]];portConstraint=eastwest;editable=1;movable=1;resizable=1;deletable=1;locked=0;connectable=1;fillColor=#8DCDFF;strokeColor=#397BFF;fontStyle=1" parent="C0yg4FrweDamgOmbEFy_-237" vertex="1">
          <mxGeometry y="112" width="160" height="26" as="geometry" />
        </mxCell>
        <mxCell id="C0yg4FrweDamgOmbEFy_-243" value="Student" style="swimlane;fontStyle=1;align=center;verticalAlign=top;childLayout=stackLayout;horizontal=1;startSize=26;horizontalStack=0;resizeParent=1;resizeLast=0;collapsible=1;marginBottom=0;rounded=0;shadow=0;strokeWidth=1;editable=1;movable=1;resizable=1;rotatable=1;deletable=1;locked=0;connectable=1;fillColor=#8DCDFF;strokeColor=#397BFF;" parent="C0yg4FrweDamgOmbEFy_-293" vertex="1">
          <mxGeometry x="10" y="260" width="230" height="170" as="geometry">
            <mxRectangle x="130" y="380" width="160" height="26" as="alternateBounds" />
          </mxGeometry>
        </mxCell>
        <mxCell id="C0yg4FrweDamgOmbEFy_-244" value="+studentNumber: int" style="text;align=left;verticalAlign=top;spacingLeft=4;spacingRight=4;overflow=hidden;rotatable=1;points=[[0,0.5],[1,0.5]];portConstraint=eastwest;fontStyle=1;editable=1;movable=1;resizable=1;deletable=1;locked=0;connectable=1;fillColor=#8DCDFF;strokeColor=#397BFF;" parent="C0yg4FrweDamgOmbEFy_-243" vertex="1">
          <mxGeometry y="26" width="230" height="26" as="geometry" />
        </mxCell>
        <mxCell id="C0yg4FrweDamgOmbEFy_-245" value="+averageMark: int" style="text;align=left;verticalAlign=top;spacingLeft=4;spacingRight=4;overflow=hidden;rotatable=1;points=[[0,0.5],[1,0.5]];portConstraint=eastwest;rounded=0;shadow=0;html=0;editable=1;movable=1;resizable=1;deletable=1;locked=0;connectable=1;fillColor=#8DCDFF;strokeColor=#397BFF;fontStyle=1" parent="C0yg4FrweDamgOmbEFy_-243" vertex="1">
          <mxGeometry y="52" width="230" height="26" as="geometry" />
        </mxCell>
        <mxCell id="C0yg4FrweDamgOmbEFy_-246" value="" style="line;html=1;strokeWidth=1;align=left;verticalAlign=middle;spacingTop=-1;spacingLeft=3;spacingRight=3;rotatable=1;labelPosition=right;points=[];portConstraint=eastwest;editable=1;movable=1;resizable=1;deletable=1;locked=0;connectable=1;fontStyle=1" parent="C0yg4FrweDamgOmbEFy_-243" vertex="1">
          <mxGeometry y="78" width="230" height="8" as="geometry" />
        </mxCell>
        <mxCell id="C0yg4FrweDamgOmbEFy_-247" value="+isEligibleToEnroll(str): bool" style="text;align=left;verticalAlign=top;spacingLeft=4;spacingRight=4;overflow=hidden;rotatable=1;points=[[0,0.5],[1,0.5]];portConstraint=eastwest;fontStyle=5;editable=1;movable=1;resizable=1;deletable=1;locked=0;connectable=1;fillColor=#8DCDFF;strokeColor=#397BFF;" parent="C0yg4FrweDamgOmbEFy_-243" vertex="1">
          <mxGeometry y="86" width="230" height="26" as="geometry" />
        </mxCell>
        <mxCell id="C0yg4FrweDamgOmbEFy_-248" value="+getSeminarsTaken(): int&#xa;" style="text;align=left;verticalAlign=top;spacingLeft=4;spacingRight=4;overflow=hidden;rotatable=1;points=[[0,0.5],[1,0.5]];portConstraint=eastwest;editable=1;movable=1;resizable=1;deletable=1;locked=0;connectable=1;fillColor=#8DCDFF;strokeColor=#397BFF;fontStyle=1" parent="C0yg4FrweDamgOmbEFy_-243" vertex="1">
          <mxGeometry y="112" width="230" height="26" as="geometry" />
        </mxCell>
        <mxCell id="C0yg4FrweDamgOmbEFy_-249" value="+requestEnrollment(course str): bool" style="text;align=left;verticalAlign=top;spacingLeft=4;spacingRight=4;overflow=hidden;rotatable=1;points=[[0,0.5],[1,0.5]];portConstraint=eastwest;editable=1;movable=1;resizable=1;deletable=1;locked=0;connectable=1;fillColor=#8DCDFF;strokeColor=#397BFF;fontStyle=1" parent="C0yg4FrweDamgOmbEFy_-243" vertex="1">
          <mxGeometry y="138" width="230" height="26" as="geometry" />
        </mxCell>
        <mxCell id="C0yg4FrweDamgOmbEFy_-250" value="" style="endArrow=block;endSize=10;endFill=0;shadow=0;strokeWidth=2;rounded=0;edgeStyle=elbowEdgeStyle;elbow=vertical;editable=1;movable=1;resizable=1;rotatable=1;deletable=1;locked=0;connectable=1;fillColor=#dae8fc;strokeColor=#397BFF;fontStyle=1" parent="C0yg4FrweDamgOmbEFy_-293" source="C0yg4FrweDamgOmbEFy_-243" target="C0yg4FrweDamgOmbEFy_-237" edge="1">
          <mxGeometry width="160" relative="1" as="geometry">
            <mxPoint x="220" y="83" as="sourcePoint" />
            <mxPoint x="220" y="83" as="targetPoint" />
          </mxGeometry>
        </mxCell>
        <mxCell id="C0yg4FrweDamgOmbEFy_-251" value="Professor" style="swimlane;fontStyle=1;align=center;verticalAlign=top;childLayout=stackLayout;horizontal=1;startSize=26;horizontalStack=0;resizeParent=1;resizeLast=0;collapsible=1;marginBottom=0;rounded=0;shadow=0;strokeWidth=1;editable=1;movable=1;resizable=1;rotatable=1;deletable=1;locked=0;connectable=1;fillColor=#8DCDFF;strokeColor=#397BFF;" parent="C0yg4FrweDamgOmbEFy_-293" vertex="1">
          <mxGeometry x="400" y="260" width="160" height="138" as="geometry">
            <mxRectangle x="340" y="380" width="170" height="26" as="alternateBounds" />
          </mxGeometry>
        </mxCell>
        <mxCell id="C0yg4FrweDamgOmbEFy_-252" value="/salary: int" style="text;align=left;verticalAlign=top;spacingLeft=4;spacingRight=4;overflow=hidden;rotatable=1;points=[[0,0.5],[1,0.5]];portConstraint=eastwest;editable=1;movable=1;resizable=1;deletable=1;locked=0;connectable=1;fillColor=#8DCDFF;strokeColor=#397BFF;fontStyle=1" parent="C0yg4FrweDamgOmbEFy_-251" vertex="1">
          <mxGeometry y="26" width="160" height="26" as="geometry" />
        </mxCell>
        <mxCell id="C0yg4FrweDamgOmbEFy_-253" value="#staffNumber: int" style="text;align=left;verticalAlign=top;spacingLeft=4;spacingRight=4;overflow=hidden;rotatable=1;points=[[0,0.5],[1,0.5]];portConstraint=eastwest;editable=1;movable=1;resizable=1;deletable=1;locked=0;connectable=1;fillColor=#8DCDFF;strokeColor=#397BFF;fontStyle=1" parent="C0yg4FrweDamgOmbEFy_-251" vertex="1">
          <mxGeometry y="52" width="160" height="26" as="geometry" />
        </mxCell>
        <mxCell id="C0yg4FrweDamgOmbEFy_-254" value="-yearsOfService: int" style="text;align=left;verticalAlign=top;spacingLeft=4;spacingRight=4;overflow=hidden;rotatable=1;points=[[0,0.5],[1,0.5]];portConstraint=eastwest;editable=1;movable=1;resizable=1;deletable=1;locked=0;connectable=1;fillColor=#8DCDFF;strokeColor=#397BFF;fontStyle=1" parent="C0yg4FrweDamgOmbEFy_-251" vertex="1">
          <mxGeometry y="78" width="160" height="26" as="geometry" />
        </mxCell>
        <mxCell id="C0yg4FrweDamgOmbEFy_-255" value="+numberOfClasses: int" style="text;align=left;verticalAlign=top;spacingLeft=4;spacingRight=4;overflow=hidden;rotatable=1;points=[[0,0.5],[1,0.5]];portConstraint=eastwest;editable=1;movable=1;resizable=1;deletable=1;locked=0;connectable=1;fillColor=#8DCDFF;strokeColor=#397BFF;fontStyle=1" parent="C0yg4FrweDamgOmbEFy_-251" vertex="1">
          <mxGeometry y="104" width="160" height="26" as="geometry" />
        </mxCell>
        <mxCell id="C0yg4FrweDamgOmbEFy_-256" value="" style="line;html=1;strokeWidth=1;align=left;verticalAlign=middle;spacingTop=-1;spacingLeft=3;spacingRight=3;rotatable=1;labelPosition=right;points=[];portConstraint=eastwest;editable=1;movable=1;resizable=1;deletable=1;locked=0;connectable=1;fontStyle=1" parent="C0yg4FrweDamgOmbEFy_-251" vertex="1">
          <mxGeometry y="130" width="160" height="8" as="geometry" />
        </mxCell>
        <mxCell id="C0yg4FrweDamgOmbEFy_-257" value="" style="endArrow=block;endSize=10;endFill=0;shadow=0;strokeWidth=2;rounded=0;edgeStyle=elbowEdgeStyle;elbow=vertical;editable=1;movable=1;resizable=1;rotatable=1;deletable=1;locked=0;connectable=1;fillColor=#dae8fc;strokeColor=#397BFF;fontStyle=1" parent="C0yg4FrweDamgOmbEFy_-293" source="C0yg4FrweDamgOmbEFy_-251" target="C0yg4FrweDamgOmbEFy_-237" edge="1">
          <mxGeometry width="160" relative="1" as="geometry">
            <mxPoint x="230" y="253" as="sourcePoint" />
            <mxPoint x="330" y="151" as="targetPoint" />
          </mxGeometry>
        </mxCell>
        <mxCell id="C0yg4FrweDamgOmbEFy_-258" value="Address" style="swimlane;fontStyle=1;align=center;verticalAlign=top;childLayout=stackLayout;horizontal=1;startSize=26;horizontalStack=0;resizeParent=1;resizeLast=0;collapsible=1;marginBottom=0;rounded=0;shadow=0;strokeWidth=1;editable=1;movable=1;resizable=1;rotatable=1;deletable=1;locked=0;connectable=1;fillColor=#8DCDFF;strokeColor=#397BFF;" parent="C0yg4FrweDamgOmbEFy_-293" vertex="1">
          <mxGeometry x="528" width="160" height="216" as="geometry">
            <mxRectangle x="550" y="140" width="160" height="26" as="alternateBounds" />
          </mxGeometry>
        </mxCell>
        <mxCell id="C0yg4FrweDamgOmbEFy_-259" value="+street: str" style="text;align=left;verticalAlign=top;spacingLeft=4;spacingRight=4;overflow=hidden;rotatable=1;points=[[0,0.5],[1,0.5]];portConstraint=eastwest;editable=1;movable=1;resizable=1;deletable=1;locked=0;connectable=1;fillColor=#8DCDFF;strokeColor=#397BFF;fontStyle=1" parent="C0yg4FrweDamgOmbEFy_-258" vertex="1">
          <mxGeometry y="26" width="160" height="26" as="geometry" />
        </mxCell>
        <mxCell id="C0yg4FrweDamgOmbEFy_-260" value="+city: str" style="text;align=left;verticalAlign=top;spacingLeft=4;spacingRight=4;overflow=hidden;rotatable=1;points=[[0,0.5],[1,0.5]];portConstraint=eastwest;rounded=0;shadow=0;html=0;editable=1;movable=1;resizable=1;deletable=1;locked=0;connectable=1;fillColor=#8DCDFF;strokeColor=#397BFF;fontStyle=1" parent="C0yg4FrweDamgOmbEFy_-258" vertex="1">
          <mxGeometry y="52" width="160" height="26" as="geometry" />
        </mxCell>
        <mxCell id="C0yg4FrweDamgOmbEFy_-261" value="+state: str" style="text;align=left;verticalAlign=top;spacingLeft=4;spacingRight=4;overflow=hidden;rotatable=1;points=[[0,0.5],[1,0.5]];portConstraint=eastwest;rounded=0;shadow=0;html=0;editable=1;movable=1;resizable=1;deletable=1;locked=0;connectable=1;fillColor=#8DCDFF;strokeColor=#397BFF;fontStyle=1" parent="C0yg4FrweDamgOmbEFy_-258" vertex="1">
          <mxGeometry y="78" width="160" height="26" as="geometry" />
        </mxCell>
        <mxCell id="C0yg4FrweDamgOmbEFy_-262" value="+postalCode: int" style="text;align=left;verticalAlign=top;spacingLeft=4;spacingRight=4;overflow=hidden;rotatable=1;points=[[0,0.5],[1,0.5]];portConstraint=eastwest;rounded=0;shadow=0;html=0;editable=1;movable=1;resizable=1;deletable=1;locked=0;connectable=1;fillColor=#8DCDFF;strokeColor=#397BFF;fontStyle=1" parent="C0yg4FrweDamgOmbEFy_-258" vertex="1">
          <mxGeometry y="104" width="160" height="26" as="geometry" />
        </mxCell>
        <mxCell id="C0yg4FrweDamgOmbEFy_-263" value="+country: str" style="text;align=left;verticalAlign=top;spacingLeft=4;spacingRight=4;overflow=hidden;rotatable=1;points=[[0,0.5],[1,0.5]];portConstraint=eastwest;rounded=0;shadow=0;html=0;editable=1;movable=1;resizable=1;deletable=1;locked=0;connectable=1;fillColor=#8DCDFF;strokeColor=#397BFF;fontStyle=1" parent="C0yg4FrweDamgOmbEFy_-258" vertex="1">
          <mxGeometry y="130" width="160" height="26" as="geometry" />
        </mxCell>
        <mxCell id="C0yg4FrweDamgOmbEFy_-264" value="" style="line;html=1;strokeWidth=1;align=left;verticalAlign=middle;spacingTop=-1;spacingLeft=3;spacingRight=3;rotatable=1;labelPosition=right;points=[];portConstraint=eastwest;editable=1;movable=1;resizable=1;deletable=1;locked=0;connectable=1;fontStyle=1" parent="C0yg4FrweDamgOmbEFy_-258" vertex="1">
          <mxGeometry y="156" width="160" height="8" as="geometry" />
        </mxCell>
        <mxCell id="C0yg4FrweDamgOmbEFy_-265" value="-validate(): bool" style="text;align=left;verticalAlign=top;spacingLeft=4;spacingRight=4;overflow=hidden;rotatable=1;points=[[0,0.5],[1,0.5]];portConstraint=eastwest;editable=1;movable=1;resizable=1;deletable=1;locked=0;connectable=1;fillColor=#8DCDFF;strokeColor=#397BFF;fontStyle=1" parent="C0yg4FrweDamgOmbEFy_-258" vertex="1">
          <mxGeometry y="164" width="160" height="26" as="geometry" />
        </mxCell>
        <mxCell id="C0yg4FrweDamgOmbEFy_-266" value="+outputAsLabel(): str" style="text;align=left;verticalAlign=top;spacingLeft=4;spacingRight=4;overflow=hidden;rotatable=1;points=[[0,0.5],[1,0.5]];portConstraint=eastwest;editable=1;movable=1;resizable=1;deletable=1;locked=0;connectable=1;fillColor=#8DCDFF;strokeColor=#397BFF;fontStyle=1" parent="C0yg4FrweDamgOmbEFy_-258" vertex="1">
          <mxGeometry y="190" width="160" height="26" as="geometry" />
        </mxCell>
        <mxCell id="C0yg4FrweDamgOmbEFy_-267" value="" style="endArrow=open;shadow=0;strokeWidth=2;rounded=0;endFill=1;edgeStyle=elbowEdgeStyle;elbow=vertical;editable=1;movable=1;resizable=1;rotatable=1;deletable=1;locked=0;connectable=1;fillColor=#dae8fc;strokeColor=#397BFF;fontStyle=1" parent="C0yg4FrweDamgOmbEFy_-293" source="C0yg4FrweDamgOmbEFy_-237" target="C0yg4FrweDamgOmbEFy_-258" edge="1">
          <mxGeometry x="0.5" y="41" relative="1" as="geometry">
            <mxPoint x="400" y="72" as="sourcePoint" />
            <mxPoint x="560" y="72" as="targetPoint" />
            <mxPoint x="-40" y="32" as="offset" />
          </mxGeometry>
        </mxCell>
        <mxCell id="C0yg4FrweDamgOmbEFy_-268" value="0..1" style="resizable=1;align=left;verticalAlign=bottom;labelBackgroundColor=none;fontSize=12;editable=1;movable=1;rotatable=1;deletable=1;locked=0;connectable=1;fontStyle=1" parent="C0yg4FrweDamgOmbEFy_-267" connectable="0" vertex="1">
          <mxGeometry x="-1" relative="1" as="geometry">
            <mxPoint y="1" as="offset" />
          </mxGeometry>
        </mxCell>
        <mxCell id="C0yg4FrweDamgOmbEFy_-269" value="1" style="resizable=1;align=right;verticalAlign=bottom;labelBackgroundColor=none;fontSize=12;editable=1;movable=1;rotatable=1;deletable=1;locked=0;connectable=1;fontStyle=1" parent="C0yg4FrweDamgOmbEFy_-267" connectable="0" vertex="1">
          <mxGeometry x="1" relative="1" as="geometry">
            <mxPoint x="-7" y="21" as="offset" />
          </mxGeometry>
        </mxCell>
        <mxCell id="C0yg4FrweDamgOmbEFy_-270" value="lives at" style="text;html=1;resizable=1;points=[];;align=center;verticalAlign=middle;labelBackgroundColor=none;rounded=0;shadow=0;strokeWidth=1;fontSize=12;editable=1;movable=1;rotatable=1;deletable=1;locked=0;connectable=1;fontStyle=1" parent="C0yg4FrweDamgOmbEFy_-267" vertex="1" connectable="0">
          <mxGeometry x="0.5" y="49" relative="1" as="geometry">
            <mxPoint x="-38" y="40" as="offset" />
          </mxGeometry>
        </mxCell>
        <mxCell id="C0yg4FrweDamgOmbEFy_-271" value="interacts" style="edgeStyle=orthogonalEdgeStyle;rounded=0;orthogonalLoop=1;jettySize=auto;html=1;entryX=1;entryY=0.5;entryDx=0;entryDy=0;endArrow=open;endFill=0;editable=1;movable=1;resizable=1;rotatable=1;deletable=1;locked=0;connectable=1;fillColor=#dae8fc;strokeColor=#397BFF;strokeWidth=2;fontStyle=1;startArrow=open;startFill=0;" parent="C0yg4FrweDamgOmbEFy_-293" source="C0yg4FrweDamgOmbEFy_-252" target="C0yg4FrweDamgOmbEFy_-244" edge="1">
          <mxGeometry y="-9" relative="1" as="geometry">
            <mxPoint as="offset" />
          </mxGeometry>
        </mxCell>
      </root>
    </mxGraphModel>
  </diagram>
</mxfile>
